<svg xmlns="http://www.w3.org/2000/svg" width="40.111" height="44.354" viewBox="0 0 40.111 44.354">
  <g id="Group_1036" data-name="Group 1036" transform="translate(0 0)">
    <path id="Path_1231" data-name="Path 1231" d="M-1458.318-1304.547c-.57-.76-1.2-1.484-1.7-2.289a11.327,11.327,0,0,1-.089-12.475,10.964,10.964,0,0,1,10.8-5.7,11.794,11.794,0,0,1,10.6,10.6,11.862,11.862,0,0,1-3.069,9.573c-.09.1-.17.208-.261.32l2.3,1.678c-1.464.781-2.871,1.551-4.3,2.272-.186.094-.509-.029-.75-.109-4.279-1.429-8.485-1.427-12.458.9-3.464,2.026-5.1,5.262-5.54,9.159a.937.937,0,0,0,.534.713,28.019,28.019,0,0,0,4.779,1.309c2.7.331,5.44.4,8.165.525a.758.758,0,0,1,.843.625c.385,1.131.877,2.225,1.347,3.388-.452.024-.94.063-1.43.073a41.106,41.106,0,0,1-13.053-1.317,14.376,14.376,0,0,1-3.537-1.707,3.716,3.716,0,0,1-1.654-3.8A18.292,18.292,0,0,1-1458.318-1304.547Zm.413-8.486a7.832,7.832,0,0,0,7.695,7.939,7.836,7.836,0,0,0,7.628-7.935,7.8,7.8,0,0,0-7.626-7.922A7.79,7.79,0,0,0-1457.905-1313.033Z" transform="translate(1466.823 1325.042)" fill="#189ec9"/>
    <path id="Path_1232" data-name="Path 1232" d="M-1302.188-1143.281c-.2.421-.364.769-.527,1.12a2.112,2.112,0,0,0,1.312,3.2c1.216.446,1.216.446,1.216,1.73,0,1.363,0,1.363-1.324,1.859a2.085,2.085,0,0,0-1.271,3.021c.583,1.311.583,1.311-.453,2.343a4.256,4.256,0,0,0-.432.436.6.6,0,0,1-.931.167.871.871,0,0,0-.123-.06c-2.16-1.03-3.1-.665-3.869,1.589-.191.558-.462.78-1.02.688a.2.2,0,0,0-.068,0c-1.294.225-2.126-.091-2.484-1.557a1.8,1.8,0,0,0-2.668-1.062c-1.24.765-1.949.345-2.777-.595-.466-.529-.637-.906-.233-1.5a3.157,3.157,0,0,0,.338-.743,2.039,2.039,0,0,0-1.111-2.613,12.157,12.157,0,0,1-1.141-.445,1.585,1.585,0,0,1-.451-.621c-.048-.086.008-.226-.011-.337-.224-1.3.1-2.13,1.567-2.481a1.818,1.818,0,0,0,1.079-2.67c-.743-1.222-.414-1.95.568-2.772.528-.443.912-.69,1.5-.241a1.022,1.022,0,0,0,.183.091q2.464,1.167,3.38-1.371c.389-1.077.389-1.077,1.552-1.076,1.482,0,1.482,0,2.024,1.379a2.076,2.076,0,0,0,2.879,1.248c1.454-.6,1.455-.606,2.569.515C-1302.659-1143.783-1302.419-1143.522-1302.188-1143.281Zm-4.359,6.1a3.652,3.652,0,0,0-3.634-3.666,3.652,3.652,0,0,0-3.668,3.631,3.653,3.653,0,0,0,3.667,3.7A3.659,3.659,0,0,0-1306.547-1137.182Z" transform="translate(1340.299 1171.475)" fill="#141e3c"/>
  </g>
</svg>
