<svg xmlns="http://www.w3.org/2000/svg" width="22.703" height="22.487" viewBox="0 0 22.703 22.487">
  <g id="Group_61" data-name="Group 61" transform="translate(-1659.859 -940.456)">
    <path id="Path_176" data-name="Path 176" d="M1681.733,989.823c-1.682,0-3.365-.026-5.046.011-.861.019-1.27-.3-1.264-1.187.019-2.461.013-4.922.007-7.383,0-.823.389-1.178,1.207-1.174q5.139.02,10.278,0c.876,0,1.216.4,1.206,1.262-.027,2.4,0,4.8-.012,7.2,0,1.117-.165,1.268-1.332,1.272C1685.1,989.828,1683.415,989.823,1681.733,989.823Z" transform="translate(-10.561 -26.892)" fill="#141e3c"/>
    <path id="Path_177" data-name="Path 177" d="M1678.717,955.972v-1.658h1.916a6.631,6.631,0,0,0-.624-.518c-2.727-1.628-5.452-3.26-8.2-4.857a1.19,1.19,0,0,0-.986-.1c-2.959,1.718-5.891,3.483-8.812,5.407h1.722v1.7c-1.056,0-2.1.022-3.144-.019a.846.846,0,0,1-.568-.411,2.445,2.445,0,0,1,.814-2.765c2.888-1.722,5.772-3.452,8.677-5.145.595-.347.974-.7.872-1.45s.249-1.138,1.034-1.235a1.368,1.368,0,1,0-1.55-1.579c-.114.684-.339,1.2-1.11,1.014-.8-.191-.664-.885-.563-1.463a3.105,3.105,0,1,1,4.679,3.326c-1.065.7-1.064.7.081,1.383q4.3,2.552,8.592,5.107a2.759,2.759,0,0,1,.91,2.688,1.258,1.258,0,0,1-.852.544,15.443,15.443,0,0,1-1.96.028Z" transform="translate(0 0)" fill="#189ec9"/>
  </g>
</svg>
