<svg xmlns="http://www.w3.org/2000/svg" width="22.613" height="24.801" viewBox="0 0 22.613 24.801">
  <g id="Group_8" data-name="Group 8" transform="translate(0 0)">
    <path id="Path_24" data-name="Path 24" d="M797.466-303.16v-2.2h2.227v2.158h9.05v-2.159h2.245v2.2c.349,0,.623,0,.9,0a2.322,2.322,0,0,1,2.527,2.553c0,2.029-.014,4.058.016,6.086a1.582,1.582,0,0,0,.335.895,7.728,7.728,0,0,1,1.36,7.955,7.507,7.507,0,0,1-6.181,5.008,7.676,7.676,0,0,1-6.383-1.836,1.35,1.35,0,0,0-.79-.3c-2.048-.024-4.1-.012-6.146-.014a2.33,2.33,0,0,1-2.558-2.583q0-7.532,0-15.065a2.363,2.363,0,0,1,2.681-2.7Zm4.092,18.073c-1.242-3.33-.914-6.381,1.614-8.927,2.545-2.564,5.617-2.887,8.929-1.672v-1.785H796.376v12.385h5.182Zm12.7-3.374a5.544,5.544,0,0,0-5.466-5.508,5.551,5.551,0,0,0-5.539,5.5,5.551,5.551,0,0,0,5.524,5.509A5.544,5.544,0,0,0,814.258-288.461Z" transform="translate(-794.062 305.358)" fill="#141e3c"/>
    <path id="Path_25" data-name="Path 25" d="M886.9-212.9h1.651c0,.861.027,1.717-.011,2.57a.841.841,0,0,0,.524.89c.742.39,1.458.832,2.239,1.284l-.836,1.447c-1.15-.662-2.262-1.294-3.362-1.947a.518.518,0,0,1-.2-.381C886.892-210.3,886.9-211.564,886.9-212.9Z" transform="translate(-873.3 226.44)" fill="#141e3c"/>
  </g>
</svg>
