<svg id="Group_434" data-name="Group 434" xmlns="http://www.w3.org/2000/svg" width="11.864" height="13.332" viewBox="0 0 11.864 13.332">
  <path id="Path_807" data-name="Path 807" d="M-1319.682-650.9h-5.146a.676.676,0,0,1-.766-.811,5.973,5.973,0,0,1,4.8-5.442,5.956,5.956,0,0,1,6.987,4.889c.032.2.052.409.068.615a.657.657,0,0,1-.692.748c-1.131,0-2.263,0-3.394,0Z" transform="translate(1325.597 664.235)" fill="#141e3c"/>
  <path id="Path_808" data-name="Path 808" d="M-1282.066-744.461a3.059,3.059,0,0,1-3.044,3.051,3.06,3.06,0,0,1-3.035-3.061,3.053,3.053,0,0,1,3.037-3.04A3.052,3.052,0,0,1-1282.066-744.461Z" transform="translate(1291.037 747.511)" fill="#141e3c"/>
</svg>
