<svg xmlns="http://www.w3.org/2000/svg" width="19.73" height="26.425" viewBox="0 0 19.73 26.425">
  <path id="Path_26" data-name="Path 26" d="M324.708,41.7A10.014,10.014,0,0,1,333.6,31.57a9.8,9.8,0,0,1,10.612,7.992,9.6,9.6,0,0,1-1.625,7.791c-1.342,1.835-2.995,3.443-4.356,5.266-1.115,1.494-1.995,3.163-3,4.74-.159.25-.429.578-.663.59a.966.966,0,0,1-.687-.538,26.6,26.6,0,0,0-4.849-6.925,34.04,34.04,0,0,1-3.2-4.244A8.024,8.024,0,0,1,324.708,41.7Zm15.11-.331a5.288,5.288,0,0,0-5.321-5.3,5.29,5.29,0,1,0,.16,10.578A5.24,5.24,0,0,0,339.818,41.373Z" transform="translate(-324.703 -31.524)" fill="#141e3c"/>
</svg>
