<svg xmlns="http://www.w3.org/2000/svg" xmlns:xlink="http://www.w3.org/1999/xlink" width="18.108" height="20.674" viewBox="0 0 18.108 20.674">
  <defs>
    <clipPath id="clip-path">
      <rect id="Rectangle_445" data-name="Rectangle 445" width="18.108" height="20.674" transform="translate(0 0)" fill="#189ec9"/>
    </clipPath>
  </defs>
  <g id="Group_1119" data-name="Group 1119" transform="translate(0 0)">
    <g id="Group_1110" data-name="Group 1110" transform="translate(0 0)" clip-path="url(#clip-path)">
      <path id="Path_1257" data-name="Path 1257" d="M9.063,62.038c-2.294,0-4.587,0-6.881,0A1.978,1.978,0,0,1,.008,59.924c-.1-2.53.738-4.556,3.094-5.736a4.529,4.529,0,0,1,3.664-.294,7.081,7.081,0,0,0,4.588.013,5.255,5.255,0,0,1,6.653,4.229,11.184,11.184,0,0,1,.1,1.852,1.934,1.934,0,0,1-2.091,2.047c-2.317.009-4.633,0-6.95,0m7.1-1.967c0-.391.022-.754,0-1.114A3.345,3.345,0,0,0,11.68,55.83a8.572,8.572,0,0,1-5.344-.044A3.093,3.093,0,0,0,3,56.6a3.792,3.792,0,0,0-.99,3.469Z" transform="translate(0 -41.366)" fill="#189ec9"/>
      <path id="Path_1258" data-name="Path 1258" d="M19.973,11.608a5.8,5.8,0,1,1,5.9-5.647,5.768,5.768,0,0,1-5.9,5.647m.111-1.937a3.868,3.868,0,1,0-3.875-3.884,3.842,3.842,0,0,0,3.875,3.884" transform="translate(-11.011 0)" fill="#189ec9"/>
    </g>
  </g>
</svg>
