<svg xmlns="http://www.w3.org/2000/svg" width="25.088" height="25.099" viewBox="0 0 25.088 25.099">
  <g id="Group_12" data-name="Group 12" transform="translate(-912.808 -47.131)">
    <path id="Path_34" data-name="Path 34" d="M929.141,66.823h7.784a.893.893,0,0,1,.969.978q0,2.576,0,5.152a.935.935,0,0,1-.714,1.033q-3.122,1.172-6.245,2.339a.344.344,0,0,0-.263.336,8.954,8.954,0,1,1-10.426-9.7,18.875,18.875,0,0,1,2.873-.136c2.007-.019,4.014-.005,6.021-.005Zm6.964,1.79h-.316c-4.629,0-9.258-.005-13.887.008a8.929,8.929,0,0,0-1.663.166,7.165,7.165,0,1,0,8.7,7.137.941.941,0,0,1,.716-1.032l5.513-2.067c.3-.114.726-.154.877-.375s.062-.642.063-.975C936.108,70.534,936.105,69.593,936.105,68.613Z" transform="translate(0 -12.522)" fill="#189ec9"/>
    <path id="Path_35" data-name="Path 35" d="M936.747,49.829c0,.578,0,1.155,0,1.733a.9.9,0,1,1-1.789.006q0-1.747,0-3.494a.9.9,0,1,1,1.789-.006C936.751,48.655,936.748,49.242,936.747,49.829Z" transform="translate(-14.088 0)" fill="#189ec9"/>
    <path id="Path_36" data-name="Path 36" d="M921.069,49.582a.891.891,0,0,1,.735.4c.6.9,1.2,1.792,1.793,2.7a.892.892,0,1,1-1.487.984c-.607-.893-1.2-1.794-1.8-2.695a.838.838,0,0,1-.026-.925A.888.888,0,0,1,921.069,49.582Z" transform="translate(-4.678 -1.559)" fill="#189ec9"/>
    <path id="Path_37" data-name="Path 37" d="M947.5,49.582a.886.886,0,0,1,.765.453.853.853,0,0,1-.035.95q-.685,1.037-1.377,2.069c-.139.209-.273.422-.42.625a.888.888,0,0,1-1.236.232.874.874,0,0,1-.256-1.209c.6-.93,1.221-1.848,1.843-2.764A.85.85,0,0,1,947.5,49.582Z" transform="translate(-20.348 -1.559)" fill="#189ec9"/>
    <path id="Path_38" data-name="Path 38" d="M929.6,88.107a4.481,4.481,0,1,1,4.464-4.446A4.486,4.486,0,0,1,929.6,88.107Zm2.674-4.486a2.69,2.69,0,1,0-2.705,2.7A2.7,2.7,0,0,0,932.277,83.62Z" transform="translate(-7.824 -20.364)" fill="#141e3c"/>
  </g>
</svg>
