<svg xmlns="http://www.w3.org/2000/svg" width="25.23" height="26.965" viewBox="0 0 25.23 26.965">
  <g id="Group_429" data-name="Group 429" transform="translate(-37.977 874.209)">
    <path id="Path_782" data-name="Path 782" d="M43.315-871.462v-1.625c0-.681.37-1.1.956-1.117.605-.013,1,.419,1.006,1.121.007.532,0,1.066,0,1.625H55.925v-1.6c.008-.71.382-1.147.984-1.147s.975.434.98,1.147v1.625h3.371a1.816,1.816,0,0,1,1.928,1.7,1.823,1.823,0,0,1,0,.235c.009,1.153,0,2.306,0,3.459v16.678a1.85,1.85,0,0,1-1.558,2.1,1.851,1.851,0,0,1-.531,0H40.109A1.855,1.855,0,0,1,38-848.821a1.851,1.851,0,0,1,0-.571v-19.9a1.874,1.874,0,0,1,1.558-2.143,1.872,1.872,0,0,1,.59,0h2.938C43.146-871.437,43.19-871.447,43.315-871.462ZM39.523-864.2v14.427c0,.822.175,1,1,1H60.706c.8,0,.979-.178.979-.966V-864.2Zm5.756-5.63c0,.358.011.669,0,.971a.987.987,0,0,1-.958,1.016h-.06a.985.985,0,0,1-.943-1.024v-.013c-.008-.3,0-.607,0-.981a1.475,1.475,0,0,0-.188,2.078q.041.049.086.094a1.523,1.523,0,0,0,2.154.007l.045-.047a1.451,1.451,0,0,0-.076-2.051q-.029-.027-.059-.052Zm10.649,0a1.418,1.418,0,0,0-.409,1.668,1.5,1.5,0,0,0,1.509.922,1.509,1.509,0,0,0,1.354-1.139,1.226,1.226,0,0,0-.49-1.408v.86a.987.987,0,0,1-.886,1.078.963.963,0,0,1-.106,0,1,1,0,0,1-.971-1.019c0-.015,0-.031,0-.046-.011-.29,0-.58,0-.924Z" fill="#259ec6"/>
    <path id="Path_783" data-name="Path 783" d="M126.907-755.837h-.993a.46.46,0,0,1-.5-.413.451.451,0,0,1,0-.089c-.008-.631-.006-1.262,0-1.892a.462.462,0,0,1,.415-.5.475.475,0,0,1,.088,0c.631-.01,1.262-.007,1.892,0a.467.467,0,0,1,.507.422.476.476,0,0,1,0,.081c.011.63.015,1.262,0,1.892a.478.478,0,0,1-.443.511.473.473,0,0,1-.112-.005C127.48-755.84,127.194-755.836,126.907-755.837Z" transform="translate(-78.498 -103.671)" fill="#151f3b"/>
    <path id="Path_784" data-name="Path 784" d="M172.111-757.274v.9a.471.471,0,0,1-.4.531.472.472,0,0,1-.119,0h-1.845a.478.478,0,0,1-.536-.412.483.483,0,0,1,0-.109q-.019-.922,0-1.844a.484.484,0,0,1,.427-.535.485.485,0,0,1,.1,0c.615,0,1.23-.006,1.845,0a.488.488,0,0,1,.54.431.487.487,0,0,1,0,.143c-.006.3,0,.6,0,.9Z" transform="translate(-117.817 -103.667)" fill="#151f3b"/>
    <path id="Path_785" data-name="Path 785" d="M216.145-757.22v.945a.436.436,0,0,1-.39.478.442.442,0,0,1-.083,0q-.968.013-1.938,0a.437.437,0,0,1-.471-.4.444.444,0,0,1,0-.078q-.01-.968,0-1.938c0-.335.207-.478.519-.478.6-.006,1.2,0,1.8,0a.5.5,0,0,1,.57.409.5.5,0,0,1,0,.173C216.137-757.818,216.145-757.519,216.145-757.22Z" transform="translate(-157.375 -103.712)" fill="#151f3b"/>
    <path id="Path_786" data-name="Path 786" d="M84.533-757.2c0,1.52.125,1.415-1.392,1.409h-.992a.45.45,0,0,1-.5-.394.452.452,0,0,1,0-.1v-1.89c0-.357.2-.511.537-.513h1.748c.411,0,.615.181.6.6C84.526-757.8,84.533-757.5,84.533-757.2Z" transform="translate(-39.207 -103.72)" fill="#151f3b"/>
    <path id="Path_787" data-name="Path 787" d="M170.646-668.2c-.287,0-.568-.006-.851,0-.4.01-.574-.2-.574-.581v-1.7c0-.4.169-.617.6-.609.583.012,1.165.008,1.748,0,.4,0,.574.191.569.581-.006.567-.011,1.135,0,1.7.008.414-.171.618-.592.608-.3-.007-.6,0-.9,0Z" transform="translate(-117.837 -182.366)" fill="#151f3b"/>
    <path id="Path_788" data-name="Path 788" d="M126.824-712h-.851c-.382.008-.591-.165-.589-.564v-1.8a.467.467,0,0,1,.4-.53.465.465,0,0,1,.123,0h1.843a.478.478,0,0,1,.539.408.478.478,0,0,1,0,.107q.016.921,0,1.843a.49.49,0,0,1-.434.541.486.486,0,0,1-.14,0C127.424-712,127.123-712,126.824-712Z" transform="translate(-78.473 -143.041)" fill="#151f3b"/>
    <path id="Path_789" data-name="Path 789" d="M126.849-671.049c.287,0,.568.007.851,0,.4-.013.574.191.579.574v1.748a.506.506,0,0,1-.431.571.509.509,0,0,1-.158,0c-.583-.009-1.166,0-1.748,0a.5.5,0,0,1-.574-.409.5.5,0,0,1,0-.165c.008-.583,0-1.166,0-1.749,0-.4.191-.573.582-.566C126.251-671.043,126.55-671.049,126.849-671.049Z" transform="translate(-78.457 -182.405)" fill="#151f3b"/>
    <path id="Path_790" data-name="Path 790" d="M170.648-711.97h-.9a.478.478,0,0,1-.549-.394.474.474,0,0,1-.005-.11c-.015-.63-.012-1.26,0-1.89a.461.461,0,0,1,.42-.5.471.471,0,0,1,.088,0h1.89c.353,0,.507.2.506.544v1.8a.487.487,0,0,1-.413.55.491.491,0,0,1-.141,0Z" transform="translate(-117.805 -143.067)" fill="#151f3b"/>
    <path id="Path_791" data-name="Path 791" d="M81.566-713.418c0-1.588-.152-1.45,1.44-1.45s1.449-.144,1.448,1.443.14,1.449-1.442,1.451c-.3,0-.6,0-.9,0a.478.478,0,0,1-.549-.394.477.477,0,0,1,0-.151Q81.567-712.972,81.566-713.418Z" transform="translate(-39.13 -143.06)" fill="#151f3b"/>
    <path id="Path_792" data-name="Path 792" d="M213.246-713.489c0-.315-.006-.63,0-.945a.436.436,0,0,1,.389-.478.438.438,0,0,1,.089,0q.968-.012,1.936,0c.328,0,.478.2.478.52v1.841c0,.382-.206.531-.568.527-.582-.006-1.164-.009-1.747,0-.4.006-.574-.191-.574-.574v-.9Z" transform="translate(-157.361 -143.018)" fill="#151f3b"/>
    <path id="Path_793" data-name="Path 793" d="M84.471-669.611v.9a.464.464,0,0,1-.4.519.462.462,0,0,1-.129,0H82.1a.461.461,0,0,1-.518-.4.464.464,0,0,1,0-.133v-1.841a.461.461,0,0,1,.4-.518.464.464,0,0,1,.132,0h1.841a.461.461,0,0,1,.519.395.461.461,0,0,1,0,.133C84.472-670.24,84.471-669.925,84.471-669.611Z" transform="translate(-39.147 -182.37)" fill="#151f3b"/>
  </g>
</svg>
