<svg xmlns="http://www.w3.org/2000/svg" width="26" height="14.515" viewBox="0 0 26 14.515">
  <g id="Group_174" data-name="Group 174" transform="translate(-4831.042 -1463.332)">
    <path id="Path_300" data-name="Path 300" d="M4856.411,1468.7a.631.631,0,0,0,.631-.631v-2.928a1.807,1.807,0,0,0-1.805-1.805h-22.39a1.807,1.807,0,0,0-1.805,1.805v2.928a.631.631,0,0,0,.631.631,1.893,1.893,0,1,1,0,3.786.631.631,0,0,0-.631.631v2.928a1.807,1.807,0,0,0,1.805,1.805h22.39a1.807,1.807,0,0,0,1.805-1.805v-2.928a.631.631,0,0,0-.631-.631,1.893,1.893,0,1,1,0-3.786Zm-24.107,7.345v-2.36a3.156,3.156,0,0,0,0-6.184v-2.36a.544.544,0,0,1,.543-.543h15.486v11.99h-15.486A.544.544,0,0,1,4832.3,1476.041Zm23.476-2.36v2.36a.544.544,0,0,1-.543.543H4849.6v-11.99h5.642a.544.544,0,0,1,.543.543v2.36a3.156,3.156,0,0,0,0,6.184Z" fill="#189ec9"/>
    <path id="Path_301" data-name="Path 301" d="M5292.576,1798.829h8.877a.631.631,0,1,0,0-1.262h-8.877a.631.631,0,1,0,0,1.262Z" transform="translate(-456.232 -330.848)" fill="#141e3c"/>
    <path id="Path_302" data-name="Path 302" d="M5478.2,2117.307h-7.068a.631.631,0,0,0,0,1.262h7.068a.631.631,0,0,0,0-1.262Z" transform="translate(-632.975 -647.349)" fill="#141e3c"/>
    <path id="Path_303" data-name="Path 303" d="M5301.453,2437.022h-8.877a.631.631,0,1,0,0,1.262h8.877a.631.631,0,1,0,0-1.262Z" transform="translate(-456.232 -963.824)" fill="#141e3c"/>
  </g>
</svg>
