<svg xmlns="http://www.w3.org/2000/svg" width="37.354" height="39.955" viewBox="0 0 37.354 39.955">
  <g id="Group_429" data-name="Group 429" transform="translate(636.873 607.122)">
    <path id="Path_782" data-name="Path 782" d="M-629.006-603.053c0-.83,0-1.621,0-2.411.007-1.01.549-1.638,1.419-1.657.9-.02,1.479.621,1.492,1.663.01.79,0,1.581,0,2.41H-610.3c0-.8-.006-1.59,0-2.378.011-1.054.569-1.7,1.459-1.694s1.446.643,1.454,1.7c.005.77,0,1.54,0,2.416h2.19c.937,0,1.874,0,2.811,0a2.7,2.7,0,0,1,2.859,2.865c.013,1.71,0,3.419,0,5.129q0,12.366,0,24.733,0,3.116-3.1,3.113h-31.126c-2.115,0-3.126-1.018-3.127-3.154q0-14.755,0-29.511c0-2.164,1.02-3.176,3.185-3.177l4.356-.006C-629.26-603.015-629.191-603.031-629.006-603.053Zm-5.623,10.767v.807q0,10.295,0,20.59c0,1.219.259,1.478,1.478,1.478h29.936c1.183,0,1.451-.264,1.452-1.431q0-10.33,0-20.66v-.784Zm8.536-8.349c0,.53.017.986,0,1.44a1.464,1.464,0,0,1-1.51,1.506,1.46,1.46,0,0,1-1.4-1.539c-.011-.45,0-.9,0-1.455a2.188,2.188,0,0,0-.151,3.221,2.258,2.258,0,0,0,3.26-.059A2.153,2.153,0,0,0-626.093-600.636Zm15.793,0a2.1,2.1,0,0,0-.607,2.474,2.226,2.226,0,0,0,2.238,1.367,2.237,2.237,0,0,0,2.008-1.688,1.819,1.819,0,0,0-.728-2.088c0,.447.007.864,0,1.281a1.463,1.463,0,0,1-1.472,1.6,1.476,1.476,0,0,1-1.436-1.579C-610.311-599.7-610.3-600.13-610.3-600.64Z" transform="translate(0 0)" fill="#189ec9"/>
    <path id="Path_783" data-name="Path 783" d="M-540.742-478.4c-.491,0-.982.007-1.473,0a.681.681,0,0,1-.744-.745c-.011-.935-.008-1.871,0-2.806a.685.685,0,0,1,.746-.747c.935-.015,1.871-.01,2.806,0a.691.691,0,0,1,.752.746c.017.935.023,1.871,0,2.806a.713.713,0,0,1-.822.751C-539.9-478.408-540.321-478.4-540.742-478.4Z" transform="translate(-80.707 -106.922)" fill="#141e3c"/>
    <path id="Path_784" data-name="Path 784" d="M-491.471-480.509c0,.444,0,.888,0,1.333a.7.7,0,0,1-.773.789c-.912,0-1.824,0-2.736,0a.709.709,0,0,1-.8-.773c-.018-.911-.017-1.824,0-2.735a.717.717,0,0,1,.783-.794c.912-.006,1.824-.009,2.736,0a.724.724,0,0,1,.794.846c-.008.444,0,.888,0,1.333Z" transform="translate(-121.252 -106.94)" fill="#141e3c"/>
    <path id="Path_785" data-name="Path 785" d="M-444.019-480.493c0,.467.006.935,0,1.4a.646.646,0,0,1-.7.7q-1.436.02-2.873,0a.649.649,0,0,1-.7-.711q-.014-1.436,0-2.873c0-.5.307-.709.77-.713.888-.008,1.775,0,2.663,0a.736.736,0,0,1,.843.863C-444.03-481.381-444.018-480.937-444.019-480.493Z" transform="translate(-162.067 -106.943)" fill="#141e3c"/>
    <path id="Path_786" data-name="Path 786" d="M-585.88-480.49c0,2.255.186,2.1-2.064,2.089-.491,0-.981,0-1.472,0a.668.668,0,0,1-.743-.736c-.005-.934,0-1.869,0-2.8,0-.529.3-.758.8-.762.864-.006,1.729,0,2.593-.006.61-.007.911.268.893.89C-585.89-481.378-585.88-480.934-585.88-480.49Z" transform="translate(-40.145 -106.924)" fill="#141e3c"/>
    <path id="Path_787" data-name="Path 787" d="M-493.658-383.923c-.421,0-.841-.008-1.262,0-.6.014-.85-.3-.851-.862,0-.841,0-1.682,0-2.523,0-.593.251-.915.886-.9.864.018,1.729.012,2.593,0,.591-.006.849.286.843.863-.008.841-.015,1.682,0,2.523.011.614-.254.916-.877.9-.444-.01-.888,0-1.332,0Z" transform="translate(-121.268 -188.143)" fill="#141e3c"/>
    <path id="Path_788" data-name="Path 788" d="M-540.828-431.1c-.421,0-.841-.005-1.262,0-.573.011-.877-.245-.874-.836,0-.888,0-1.776,0-2.664a.694.694,0,0,1,.769-.789c.911,0,1.823,0,2.734,0a.707.707,0,0,1,.8.762q.024,1.367,0,2.734a.727.727,0,0,1-.845.8C-539.939-431.107-540.384-431.1-540.828-431.1Z" transform="translate(-80.71 -147.595)" fill="#141e3c"/>
    <path id="Path_789" data-name="Path 789" d="M-540.777-388.193c.421,0,.841.01,1.261,0,.595-.019.857.284.859.852,0,.864.005,1.729,0,2.593a.75.75,0,0,1-.873.842c-.864-.013-1.729-.005-2.593,0a.739.739,0,0,1-.851-.855c.011-.864.008-1.729,0-2.593,0-.588.282-.854.864-.839C-541.665-388.184-541.221-388.193-540.777-388.193Z" transform="translate(-80.7 -188.154)" fill="#141e3c"/>
    <path id="Path_790" data-name="Path 790" d="M-493.631-431.09c-.444,0-.888-.006-1.331,0a.71.71,0,0,1-.822-.747c-.022-.934-.018-1.869,0-2.8a.683.683,0,0,1,.755-.737c.934,0,1.869,0,2.8,0,.523,0,.751.3.75.806q0,1.331,0,2.663a.722.722,0,0,1-.822.815Z" transform="translate(-121.244 -147.604)" fill="#141e3c"/>
    <path id="Path_791" data-name="Path 791" d="M-590.2-433.266c0-2.355-.225-2.151,2.135-2.151s2.149-.214,2.148,2.139.208,2.149-2.137,2.152c-.444,0-.887-.007-1.331,0a.7.7,0,0,1-.816-.808C-590.193-432.379-590.2-432.823-590.2-433.266Z" transform="translate(-40.11 -147.566)" fill="#141e3c"/>
    <path id="Path_792" data-name="Path 792" d="M-448.308-433.293c0-.467-.008-.934,0-1.4a.646.646,0,0,1,.7-.7q1.435-.018,2.871,0c.486.007.705.294.7.772,0,.91,0,1.821,0,2.731,0,.565-.306.787-.843.782-.864-.008-1.727-.013-2.591,0-.594.009-.855-.277-.849-.852,0-.444,0-.887,0-1.331Z" transform="translate(-162.057 -147.581)" fill="#141e3c"/>
    <path id="Path_793" data-name="Path 793" d="M-585.892-385.98c0,.443,0,.887,0,1.33a.688.688,0,0,1-.785.766c-.91,0-1.82,0-2.73,0a.684.684,0,0,1-.765-.783c0-.91,0-1.82,0-2.73a.683.683,0,0,1,.783-.766q1.365,0,2.73,0a.684.684,0,0,1,.767.782C-585.891-386.913-585.892-386.446-585.892-385.98Z" transform="translate(-40.136 -188.183)" fill="#141e3c"/>
  </g>
</svg>
