<svg xmlns="http://www.w3.org/2000/svg" width="60" height="65.805" viewBox="0 0 60 65.805">
  <g id="Group_8" data-name="Group 8" transform="translate(-794.062 305.358)">
    <path id="Path_24" data-name="Path 24" d="M803.094-299.526v-5.829H809v5.725h24.012v-5.729h5.956v5.832c.926,0,1.653,0,2.38,0,4.247.016,6.7,2.489,6.706,6.774.006,5.383-.036,10.766.042,16.148a4.2,4.2,0,0,0,.89,2.374c5.09,6.388,6.465,13.47,3.607,21.106-2.823,7.544-8.5,12.015-16.4,13.287a20.369,20.369,0,0,1-16.938-4.871,3.579,3.579,0,0,0-2.1-.789c-5.435-.065-10.872-.031-16.308-.037-4.349,0-6.786-2.465-6.788-6.854q0-19.986,0-39.972c0-4.833,2.31-7.16,7.112-7.167C801.748-299.526,802.322-299.526,803.094-299.526Zm10.859,47.954c-3.294-8.835-2.427-16.931,4.281-23.687,6.754-6.8,14.9-7.66,23.691-4.436v-4.737H800.2v32.86h13.75Zm33.7-8.952a14.709,14.709,0,0,0-14.5-14.614,14.727,14.727,0,0,0-14.7,14.581,14.727,14.727,0,0,0,14.658,14.617A14.711,14.711,0,0,0,847.649-260.524Z" fill="#141e3c"/>
    <path id="Path_25" data-name="Path 25" d="M886.9-212.9h4.381c0,2.284.072,4.555-.029,6.82a2.23,2.23,0,0,0,1.389,2.362c1.97,1.036,3.869,2.209,5.94,3.407l-2.217,3.84c-3.051-1.756-6-3.434-8.92-5.166a1.372,1.372,0,0,1-.52-1.012C886.885-206,886.9-209.358,886.9-212.9Z" transform="translate(-56.757 -56.528)" fill="#189ec9"/>
  </g>
</svg>
