<svg xmlns="http://www.w3.org/2000/svg" width="29" height="29" viewBox="0 0 29 29">
  <g id="Group_1682" data-name="Group 1682" transform="translate(-975.25 -321)">
    <g id="Ellipse_77" data-name="Ellipse 77" transform="translate(975.25 321)" fill="#189ec9" stroke="#fff" stroke-width="2">
      <circle cx="14.5" cy="14.5" r="14.5" stroke="none"/>
      <circle cx="14.5" cy="14.5" r="13.5" fill="none"/>
    </g>
    <g id="Group_1040" data-name="Group 1040" transform="translate(982.138 329.619)">
      <path id="Path_1235" data-name="Path 1235" d="M-2302.567-1357.543h-6.173a1.223,1.223,0,0,1-1.325-1.327q0-3.539,0-7.077a1.207,1.207,0,0,1,1.314-1.312c.74,0,1.48,0,2.22,0a.354.354,0,0,0,.284-.113c.439-.454.886-.9,1.328-1.352a1.2,1.2,0,0,1,.886-.379c1,0,2,0,3,0a1.275,1.275,0,0,1,.942.425c.421.43.849.853,1.266,1.286a.41.41,0,0,0,.331.134c.722-.006,1.444,0,2.166,0a1.2,1.2,0,0,1,1.289,1.284q0,3.566,0,7.131a1.219,1.219,0,0,1-1.3,1.3Zm.012-1.826a3.337,3.337,0,0,0,3.335-3.342,3.342,3.342,0,0,0-3.332-3.347,3.344,3.344,0,0,0-3.335,3.344A3.339,3.339,0,0,0-2302.555-1359.37Zm6.08-5.962a.5.5,0,0,0,.495-.513.509.509,0,0,0-.511-.5.515.515,0,0,0-.5.517A.507.507,0,0,0-2296.475-1365.332Z" transform="translate(2310.065 1369.102)" fill="#fff"/>
      <path id="Path_1236" data-name="Path 1236" d="M-2215.442-1297.761a2.526,2.526,0,0,1,2.523,2.526,2.533,2.533,0,0,1-2.523,2.53,2.534,2.534,0,0,1-2.523-2.53A2.524,2.524,0,0,1-2215.442-1297.761Z" transform="translate(2222.953 1301.625)" fill="#fff"/>
    </g>
  </g>
</svg>
