<svg xmlns="http://www.w3.org/2000/svg" width="73" height="73.032" viewBox="0 0 73 73.032">
  <g id="Group_1104" data-name="Group 1104" transform="translate(-912.808 -47.131)">
    <path id="Path_34" data-name="Path 34" d="M960.334,66.834q11.325,0,22.65,0a2.6,2.6,0,0,1,2.821,2.845q0,7.5,0,14.992a2.72,2.72,0,0,1-2.077,3.006q-9.084,3.41-18.172,6.805a1,1,0,0,0-.765.977,26.054,26.054,0,1,1-30.336-28.219,54.927,54.927,0,0,1,8.36-.395c5.839-.054,11.678-.016,17.518-.016ZM980.6,72.043h-.919c-13.469,0-26.938-.016-40.407.022a25.982,25.982,0,0,0-4.84.482c-10.876,2.111-18.374,13.556-16.041,24.406a20.873,20.873,0,0,0,41.343-3.639,2.737,2.737,0,0,1,2.085-3q8.021-3.005,16.04-6.013c.885-.332,2.114-.447,2.551-1.092.458-.677.18-1.869.184-2.837C980.605,77.631,980.6,74.892,980.6,72.043Z" transform="translate(0 1.159)" fill="#189ec9"/>
    <path id="Path_35" data-name="Path 35" d="M940.169,54.983c0,1.68.008,3.362,0,5.042a2.607,2.607,0,1,1-5.207.018q-.008-5.084,0-10.167a2.606,2.606,0,1,1,5.205-.018C940.181,51.566,940.17,53.274,940.169,54.983Z" transform="translate(1.304)" fill="#189ec9"/>
    <path id="Path_36" data-name="Path 36" d="M922.8,49.582a2.592,2.592,0,0,1,2.14,1.152c1.749,2.609,3.5,5.215,5.218,7.847a2.594,2.594,0,1,1-4.326,2.863c-1.766-2.6-3.5-5.219-5.228-7.841a2.437,2.437,0,0,1-.075-2.693A2.584,2.584,0,0,1,922.8,49.582Z" transform="translate(0.433 0.144)" fill="#189ec9"/>
    <path id="Path_37" data-name="Path 37" d="M952.656,49.582a2.578,2.578,0,0,1,2.226,1.319,2.482,2.482,0,0,1-.1,2.764q-1.993,3.016-4.005,6.02c-.4.608-.794,1.228-1.223,1.819a2.585,2.585,0,0,1-3.6.675,2.543,2.543,0,0,1-.745-3.517c1.75-2.705,3.552-5.377,5.363-8.043A2.472,2.472,0,0,1,952.656,49.582Z" transform="translate(1.884 0.144)" fill="#189ec9"/>
    <path id="Path_38" data-name="Path 38" d="M938.19,105.219a13.037,13.037,0,1,1,12.99-12.937A13.053,13.053,0,0,1,938.19,105.219Zm7.781-13.054a7.826,7.826,0,1,0-7.872,7.844A7.858,7.858,0,0,0,945.97,92.165Z" transform="translate(0.724 1.885)" fill="#141e3c"/>
  </g>
</svg>
