<svg xmlns="http://www.w3.org/2000/svg" width="59.024" height="59.051" viewBox="0 0 59.024 59.051">
  <g id="Group_1655" data-name="Group 1655" transform="translate(-912.808 -47.131)">
    <path id="Path_34" data-name="Path 34" d="M951.235,66.831q9.156,0,18.314,0a2.1,2.1,0,0,1,2.281,2.3q0,6.06,0,12.122a2.2,2.2,0,0,1-1.68,2.431q-7.345,2.757-14.694,5.5a.81.81,0,0,0-.618.79A21.066,21.066,0,1,1,930.312,67.16a44.408,44.408,0,0,1,6.759-.319c4.721-.044,9.443-.013,14.165-.013Zm16.384,4.211h-.743c-10.89,0-21.781-.013-32.671.018a21.009,21.009,0,0,0-3.914.39A16.857,16.857,0,1,0,950.75,88.241a2.213,2.213,0,0,1,1.686-2.427q6.485-2.43,12.969-4.862c.716-.269,1.709-.361,2.063-.883.371-.547.146-1.511.149-2.294C967.626,75.561,967.62,73.346,967.62,71.042Z" transform="translate(0 -2.832)" fill="#fff"/>
    <path id="Path_35" data-name="Path 35" d="M939.171,53.479c0,1.359.006,2.718,0,4.077a2.107,2.107,0,1,1-4.21.015q-.006-4.111,0-8.221a2.107,2.107,0,1,1,4.209-.015C939.18,50.717,939.172,52.1,939.171,53.479Z" transform="translate(-3.186 0)" fill="#fff"/>
    <path id="Path_36" data-name="Path 36" d="M922.3,49.582a2.1,2.1,0,0,1,1.73.931c1.415,2.11,2.833,4.217,4.219,6.345a2.1,2.1,0,1,1-3.5,2.315c-1.428-2.1-2.828-4.22-4.227-6.34a1.971,1.971,0,0,1-.061-2.177A2.089,2.089,0,0,1,922.3,49.582Z" transform="translate(-1.058 -0.353)" fill="#fff"/>
    <path id="Path_37" data-name="Path 37" d="M951.151,49.582a2.085,2.085,0,0,1,1.8,1.067,2.007,2.007,0,0,1-.081,2.235q-1.611,2.439-3.239,4.867c-.327.491-.641.993-.989,1.471a2.09,2.09,0,0,1-2.908.545,2.056,2.056,0,0,1-.6-2.843c1.415-2.187,2.872-4.348,4.336-6.5A2,2,0,0,1,951.151,49.582Z" transform="translate(-4.601 -0.353)" fill="#fff"/>
    <path id="Path_38" data-name="Path 38" d="M935.685,100.227a10.541,10.541,0,1,1,10.5-10.461A10.554,10.554,0,0,1,935.685,100.227Zm6.291-10.555a6.328,6.328,0,1,0-6.365,6.342A6.353,6.353,0,0,0,941.976,89.673Z" transform="translate(-1.769 -4.605)" fill="#fff"/>
  </g>
</svg>
