<svg xmlns="http://www.w3.org/2000/svg" width="71.05" height="71.081" viewBox="0 0 71.05 71.081">
  <g id="Group_120" data-name="Group 120" transform="translate(-912.808 -47.131)">
    <path id="Path_34" data-name="Path 34" d="M959.065,66.833q11.022,0,22.045,0a2.53,2.53,0,0,1,2.746,2.769q0,7.3,0,14.591a2.647,2.647,0,0,1-2.022,2.926q-8.841,3.319-17.687,6.624a.975.975,0,0,0-.744.951A25.358,25.358,0,1,1,933.878,67.23a53.457,53.457,0,0,1,8.136-.384c5.683-.053,11.366-.015,17.051-.015Zm19.722,5.07h-.895c-13.109,0-26.219-.015-39.328.022a25.29,25.29,0,0,0-4.711.469c-10.585,2.055-17.883,13.194-15.613,23.754a20.315,20.315,0,0,0,40.239-3.542,2.664,2.664,0,0,1,2.029-2.922q7.807-2.925,15.612-5.853c.862-.324,2.057-.435,2.483-1.063.446-.659.175-1.819.179-2.761C978.795,77.343,978.787,74.676,978.787,71.9Z" transform="translate(0 0.602)" fill="#189ec9"/>
    <path id="Path_35" data-name="Path 35" d="M940.03,54.773c0,1.636.007,3.272,0,4.908a2.537,2.537,0,1,1-5.067.018q-.008-4.948,0-9.9a2.536,2.536,0,1,1,5.066-.018C940.041,51.447,940.031,53.11,940.03,54.773Z" transform="translate(0.678 0)" fill="#141e3c"/>
    <path id="Path_36" data-name="Path 36" d="M922.731,49.582a2.523,2.523,0,0,1,2.083,1.121c1.7,2.539,3.411,5.076,5.079,7.638a2.525,2.525,0,1,1-4.211,2.787c-1.719-2.528-3.4-5.08-5.089-7.632a2.372,2.372,0,0,1-.073-2.621A2.515,2.515,0,0,1,922.731,49.582Z" transform="translate(0.225 0.075)" fill="#141e3c"/>
    <path id="Path_37" data-name="Path 37" d="M952.446,49.582a2.51,2.51,0,0,1,2.166,1.284,2.416,2.416,0,0,1-.1,2.69q-1.94,2.936-3.9,5.859c-.394.592-.772,1.2-1.191,1.771a2.516,2.516,0,0,1-3.5.657,2.474,2.474,0,0,1-.726-3.423c1.7-2.633,3.458-5.233,5.22-7.828A2.4,2.4,0,0,1,952.446,49.582Z" transform="translate(0.979 0.075)" fill="#141e3c"/>
    <path id="Path_38" data-name="Path 38" d="M937.84,104.523a12.689,12.689,0,1,1,12.643-12.592A12.7,12.7,0,0,1,937.84,104.523Zm7.573-12.705a7.617,7.617,0,1,0-7.661,7.635A7.648,7.648,0,0,0,945.413,91.817Z" transform="translate(0.376 0.98)" fill="#189ec9"/>
  </g>
</svg>
