<svg xmlns="http://www.w3.org/2000/svg" width="16.864" height="16.872" viewBox="0 0 16.864 16.872">
  <g id="Group_1104" data-name="Group 1104" transform="translate(-912.808 -47.131)">
    <path id="Path_34" data-name="Path 34" d="M923.787,66.821h5.233a.6.6,0,0,1,.652.657q0,1.732,0,3.463a.628.628,0,0,1-.48.694q-2.1.788-4.2,1.572a.232.232,0,0,0-.177.226,6.019,6.019,0,1,1-7.008-6.519,12.688,12.688,0,0,1,1.931-.091c1.349-.012,2.7,0,4.047,0Zm4.681,1.2h-.212c-3.112,0-6.223,0-9.335.005a6.005,6.005,0,0,0-1.118.111,4.816,4.816,0,1,0,5.845,4.8.632.632,0,0,1,.482-.693l3.706-1.389c.2-.077.488-.1.589-.252s.042-.432.042-.655C928.47,69.316,928.468,68.683,928.468,68.025Z" transform="translate(0 -14.871)" fill="#fff"/>
    <path id="Path_35" data-name="Path 35" d="M936.16,48.945c0,.388,0,.777,0,1.165a.6.6,0,1,1-1.2,0q0-1.175,0-2.349a.6.6,0,1,1,1.2,0C936.162,48.155,936.16,48.55,936.16,48.945Z" transform="translate(-16.73 0)" fill="#fff"/>
    <path id="Path_36" data-name="Path 36" d="M920.771,49.582a.6.6,0,0,1,.495.266c.4.6.809,1.2,1.205,1.813a.6.6,0,1,1-1,.661c-.408-.6-.808-1.206-1.208-1.811a.563.563,0,0,1-.017-.622A.6.6,0,0,1,920.771,49.582Z" transform="translate(-5.555 -1.851)" fill="#fff"/>
    <path id="Path_37" data-name="Path 37" d="M946.612,49.582a.6.6,0,0,1,.514.3.573.573,0,0,1-.023.638q-.461.7-.925,1.391c-.094.14-.183.284-.283.42a.6.6,0,0,1-.831.156.587.587,0,0,1-.172-.812c.4-.625.821-1.242,1.239-1.858A.571.571,0,0,1,946.612,49.582Z" transform="translate(-24.164 -1.851)" fill="#fff"/>
    <path id="Path_38" data-name="Path 38" d="M928.129,85.169a3.012,3.012,0,1,1,3-2.989A3.016,3.016,0,0,1,928.129,85.169Zm1.8-3.016a1.808,1.808,0,1,0-1.819,1.812A1.815,1.815,0,0,0,929.927,82.154Z" transform="translate(-9.291 -24.183)" fill="#fff"/>
  </g>
</svg>
