<svg xmlns="http://www.w3.org/2000/svg" width="34.967" height="34.967" viewBox="0 0 34.967 34.967">
  <g id="Group_227" data-name="Group 227" transform="translate(0)">
    <g id="Group_164" data-name="Group 164" transform="translate(0 0)">
      <g id="Group_162" data-name="Group 162">
        <path id="Path_295" data-name="Path 295" d="M-584.863,1075.4a17.5,17.5,0,0,0-17.483,17.483,17.5,17.5,0,0,0,17.483,17.484,17.5,17.5,0,0,0,17.483-17.484A17.5,17.5,0,0,0-584.863,1075.4Zm0,31.788a14.321,14.321,0,0,1-14.3-14.3,14.321,14.321,0,0,1,14.3-14.3,14.321,14.321,0,0,1,14.3,14.3A14.321,14.321,0,0,1-584.863,1107.186Z" transform="translate(602.346 -1075.398)" fill="#141e3c"/>
      </g>
      <g id="Group_163" data-name="Group 163" transform="translate(15.932 6.16)">
        <path id="Path_296" data-name="Path 296" d="M-555.783,1096.566l-3.8,2.747v-7.021a1.589,1.589,0,0,0-1.589-1.589,1.59,1.59,0,0,0-1.59,1.589v10.132a1.589,1.589,0,0,0,.867,1.415,1.586,1.586,0,0,0,.723.175,1.59,1.59,0,0,0,.932-.3l6.319-4.57a1.589,1.589,0,0,0,.357-2.219A1.589,1.589,0,0,0-555.783,1096.566Z" transform="translate(562.761 -1090.702)" fill="#141e3c"/>
      </g>
    </g>
  </g>
</svg>
