<svg xmlns="http://www.w3.org/2000/svg" width="15.683" height="20.614" viewBox="0 0 15.683 20.614">
  <g id="Group_1002" data-name="Group 1002" transform="translate(-1111.371 -117.407)">
    <path id="Path_1201" data-name="Path 1201" d="M1183.32,117.407v1.087h2.547l-3.025,3.022-.112-.068-.029-.018a4.432,4.432,0,0,0-2.591-.831,4.931,4.931,0,0,0-.6.037,4.278,4.278,0,0,0-2.546,1.232,4.851,4.851,0,0,0-.412.463,4.652,4.652,0,0,1,.676.059,5.808,5.808,0,0,1,.625.137,3.382,3.382,0,1,1,3.365,5.724c-.06.021-.121.04-.182.058s-.122.033-.184.047a3.451,3.451,0,0,1-.762.085h-.008a3.505,3.505,0,0,1-.422-.027q-.086-.011-.171-.026t-.166-.033a3.374,3.374,0,0,1-2.618-3.294v0a3.493,3.493,0,0,1,.145-.956,3.039,3.039,0,0,0-.312-.016h-.013a3.049,3.049,0,0,0-.821.116,4.766,4.766,0,0,0-.078.886,4.289,4.289,0,0,0,1.2,3.023,4.415,4.415,0,0,0,1.84,1.2c.059.02.12.037.18.054s.122.033.184.047a4.645,4.645,0,0,0,1.274.108l.086,0,.12-.011q.1-.009.206-.022a4.284,4.284,0,0,0,2.879-1.648,4.484,4.484,0,0,0,.164-5.318.271.271,0,0,1,.031-.384q.884-.88,1.765-1.762l.6-.6.144-.141.367-.357v2.564h1.081v-4.428Z" transform="translate(-60.693)" fill="#fff"/>
    <path id="Path_1202" data-name="Path 1202" d="M1118.2,218.965l-.016.017c-.042.04-.084.079-.127.117a3.354,3.354,0,0,1-2.222.834l-.1,0a3.38,3.38,0,0,1-1.008-6.571q.091-.032.185-.059t.187-.048a3.383,3.383,0,0,1,.734-.084h.014a3.365,3.365,0,0,1,.426.028q.084.011.168.026t.169.035a3.4,3.4,0,0,1,2.61,3.309,3.4,3.4,0,0,1-.138.942q-.024.081-.052.161a3.33,3.33,0,0,0,.362.021,3.262,3.262,0,0,0,.819-.1c.015-.061.029-.122.041-.184a4.4,4.4,0,0,0-.285-2.532,4.167,4.167,0,0,0-2.714-2.557q-.089-.028-.18-.053c-.061-.017-.123-.032-.185-.047-.131-.031-.265-.058-.4-.08a4.259,4.259,0,0,0-.861-.053c-.069,0-.139.008-.208.014s-.137.015-.206.024a4.452,4.452,0,0,0-1.415.458,4.469,4.469,0,0,0,1.253,8.37.276.276,0,0,1,.255.3c0,.6,0,1.213,0,1.8v.831h-.729c-.437,0-.888,0-1.333,0,0,.258,0,.518,0,.771q0,.164,0,.327h2.065v2.458h1.076v-2.464h2.047v-1.09h-2l-.033-.124,0-.015a.231.231,0,0,1-.012-.071v-.717q0-.877,0-1.753a.239.239,0,0,1,.222-.25,4.236,4.236,0,0,0,2.515-1.374c.089-.1.173-.2.252-.306q.065-.084.125-.168A4.735,4.735,0,0,1,1118.2,218.965Z" transform="translate(0 -89.417)" fill="#fff"/>
  </g>
</svg>
