<svg id="Group_29" data-name="Group 29" xmlns="http://www.w3.org/2000/svg" width="66.055" height="41.258" viewBox="0 0 66.055 41.258">
  <g id="Group_17" data-name="Group 17" transform="translate(4.901 6.442)">
    <path id="Path_39" data-name="Path 39" d="M306.994,284.006a14.814,14.814,0,1,0,14.343,14.811A14.825,14.825,0,0,0,306.994,284.006Zm7.7,25.588a13.727,13.727,0,0,1-2.108,1.342v-.245q0-1.669,0-3.339c0-.3-.15-.473-.4-.473s-.4.176-.4.473c0,1.253,0,2.506,0,3.758a.253.253,0,0,1-.179.284,13.576,13.576,0,0,1-10.257.036.308.308,0,0,1-.229-.346c.009-1.24.005-2.48,0-3.721,0-.319-.164-.5-.432-.483a.378.378,0,0,0-.367.422q0,1.736,0,3.473v.183c-.178-.1-.327-.166-.463-.254-.564-.368-1.126-.739-1.681-1.119a.323.323,0,0,1-.116-.232c-.008-.935-.015-1.87,0-2.8a3.363,3.363,0,0,1,2.293-3.058c1.284-.426,2.583-.8,3.874-1.21.126-.039.185.016.255.1q.775.9,1.554,1.8c.285.33.511.328.8-.005.514-.6,1.031-1.19,1.541-1.79a.243.243,0,0,1,.305-.094c1.224.385,2.453.754,3.679,1.136a3.417,3.417,0,0,1,2.453,3.332c0,.859,0,1.717,0,2.576A.285.285,0,0,1,314.691,309.594Zm-12.045-15.037h-.365c0-.435-.016-.866,0-1.3a4.17,4.17,0,0,1,1.008-2.578,4.145,4.145,0,0,1,7.3,2.7c.006.386,0,.773,0,1.17h-.343c-.014-.022-.028-.033-.026-.042.067-.4-.205-.643-.438-.9q-.478-.531-.954-1.064c-.278-.311-.458-.315-.77-.035a4.7,4.7,0,0,1-2.018.986,11.027,11.027,0,0,1-2.791.344c-.465,0-.578.111-.592.582C302.655,294.462,302.651,294.5,302.646,294.557Zm0,.818v1.588a.8.8,0,0,1-.87-.817A.785.785,0,0,1,302.649,295.375Zm8.44.726a.81.81,0,0,1-.869.868v-1.589A.777.777,0,0,1,311.089,296.1Zm-7.63-1.44A9.066,9.066,0,0,0,308.4,293.3a8.571,8.571,0,0,0,.6.654,1.26,1.26,0,0,1,.416,1.093c-.035.748-.006,1.5-.011,2.249a2.974,2.974,0,1,1-5.949-.022q0-1.22,0-2.441Zm4.27,7.261c-.418.414-.778.887-1.162,1.335-.037.043-.069.09-.122.159-.456-.527-.881-1.014-1.3-1.507a1.215,1.215,0,0,1-.22-1.142,3.959,3.959,0,0,0,3.044-.013C307.924,301.168,308.088,301.566,307.729,301.922Zm7.895,6.848c0-.067-.01-.121-.01-.175q0-.935,0-1.87a4.207,4.207,0,0,0-3.02-4.063c-1.216-.369-2.428-.751-3.643-1.121a.217.217,0,0,1-.185-.254c.011-.292,0-.585.008-.877a.346.346,0,0,1,.1-.225,3.748,3.748,0,0,0,1.277-2.259c.029-.175.152-.144.254-.153a1.571,1.571,0,0,0,1.18-.65,1.607,1.607,0,0,0-.066-1.995.523.523,0,0,1-.13-.36,21.324,21.324,0,0,0-.075-2.207,4.894,4.894,0,0,0-3.982-4.069,4.823,4.823,0,0,0-4.475,1.473,4.686,4.686,0,0,0-1.346,3.018c-.04.6-.015,1.194-.034,1.791a.611.611,0,0,1-.12.339,1.573,1.573,0,0,0-.256,1.665,1.51,1.51,0,0,0,1.375.987c.165.012.232.069.264.241a3.733,3.733,0,0,0,1.237,2.158.426.426,0,0,1,.121.271c.016.285,0,.572.009.858a.208.208,0,0,1-.174.243c-.967.292-1.934.585-2.9.891a9.013,9.013,0,0,0-1.466.53,4.077,4.077,0,0,0-2.31,3.755c-.013.61,0,1.221,0,1.832v.26a13.4,13.4,0,0,1-3.751-5.987,13.236,13.236,0,0,1-.215-7.02,13.5,13.5,0,1,1,22.334,12.972Z" transform="translate(-291.723 -284)" fill="#a3a3a3"/>
  </g>
  <g id="Group_18" data-name="Group 18" transform="translate(0 0)">
    <path id="Path_40" data-name="Path 40" d="M187.517,300.758H131.538a5.044,5.044,0,0,1-5.038-5.038V264.538a5.044,5.044,0,0,1,5.038-5.038h55.979a5.044,5.044,0,0,1,5.038,5.038v31.183A5.044,5.044,0,0,1,187.517,300.758Zm-55.979-39.383a3.166,3.166,0,0,0-3.162,3.162v31.183a3.166,3.166,0,0,0,3.162,3.163h55.979a3.166,3.166,0,0,0,3.163-3.163V264.538a3.166,3.166,0,0,0-3.163-3.162Z" transform="translate(-126.5 -259.5)" fill="#a3a3a3"/>
  </g>
  <g id="Group_19" data-name="Group 19" transform="translate(40.252 16.462)">
    <path id="Path_41" data-name="Path 41" d="M325.9,409.25H306.625a.625.625,0,1,1,0-1.25H325.9a.625.625,0,1,1,0,1.25Z" transform="translate(-306 -408)" fill="#a3a3a3"/>
  </g>
  <g id="Group_20" data-name="Group 20" transform="translate(40.252 20.004)">
    <path id="Path_42" data-name="Path 42" d="M318.4,426.25H306.625a.625.625,0,0,1,0-1.25H318.4a.625.625,0,0,1,0,1.25Z" transform="translate(-306 -425)" fill="#a3a3a3"/>
  </g>
</svg>
