<svg id="Group_12" data-name="Group 12" xmlns="http://www.w3.org/2000/svg" width="44.395" height="44.414" viewBox="0 0 44.395 44.414">
  <path id="Path_34" data-name="Path 34" d="M941.711,66.828q6.887,0,13.775,0a1.581,1.581,0,0,1,1.716,1.73q0,4.558,0,9.117a1.654,1.654,0,0,1-1.263,1.828q-5.524,2.074-11.052,4.139a.609.609,0,0,0-.465.594,15.845,15.845,0,1,1-18.448-17.161,33.4,33.4,0,0,1,5.084-.24c3.551-.033,7.1-.01,10.654-.01ZM954.034,70h-.559c-8.191,0-16.382-.01-24.573.014a15.8,15.8,0,0,0-2.943.293,12.679,12.679,0,1,0,15.387,12.629,1.664,1.664,0,0,1,1.268-1.826q4.878-1.828,9.755-3.657c.538-.2,1.285-.272,1.551-.664.279-.411.109-1.137.112-1.725C954.038,73.394,954.034,71.728,954.034,70Z" transform="translate(-912.808 -54.14)" fill="#a3a3a3"/>
  <path id="Path_35" data-name="Path 35" d="M938.126,51.906c0,1.022,0,2.045,0,3.067a1.585,1.585,0,1,1-3.166.011q0-3.092,0-6.183a1.585,1.585,0,1,1,3.166-.011C938.133,49.828,938.127,50.867,938.126,51.906Z" transform="translate(-920.693 -47.131)" fill="#a3a3a3"/>
  <path id="Path_36" data-name="Path 36" d="M921.767,49.582a1.577,1.577,0,0,1,1.3.7c1.064,1.587,2.131,3.171,3.173,4.772a1.578,1.578,0,1,1-2.631,1.741c-1.074-1.58-2.127-3.174-3.179-4.768a1.482,1.482,0,0,1-.046-1.638A1.572,1.572,0,0,1,921.767,49.582Z" transform="translate(-915.426 -48.004)" fill="#a3a3a3"/>
  <path id="Path_37" data-name="Path 37" d="M949.576,49.582a1.568,1.568,0,0,1,1.354.8,1.51,1.51,0,0,1-.061,1.681c-.808,1.223-1.623,2.441-2.436,3.661-.246.37-.482.747-.744,1.106a1.572,1.572,0,0,1-2.187.41,1.546,1.546,0,0,1-.453-2.139c1.064-1.645,2.161-3.27,3.262-4.891A1.5,1.5,0,0,1,949.576,49.582Z" transform="translate(-924.197 -48.004)" fill="#a3a3a3"/>
  <path id="Path_38" data-name="Path 38" d="M933.063,95a7.928,7.928,0,1,1,7.9-7.868A7.938,7.938,0,0,1,933.063,95Zm4.732-7.939a4.759,4.759,0,1,0-4.787,4.77A4.779,4.779,0,0,0,937.795,87.063Z" transform="translate(-917.187 -58.53)" fill="#a3a3a3"/>
</svg>
