<svg xmlns="http://www.w3.org/2000/svg" width="25.099" height="25.099" viewBox="0 0 25.099 25.099">
  <g id="Group_7" data-name="Group 7" transform="translate(-42 -783.561)">
    <path id="Path_22" data-name="Path 22" d="M152.764,236.87a12.541,12.541,0,0,1-7.679-11.568,12.823,12.823,0,0,1,.981-4.9,13.23,13.23,0,0,1,2.706-3.992,12.358,12.358,0,0,1,3.991-2.672,12.531,12.531,0,0,1,4.871-.981,12.825,12.825,0,0,1,4.9.981A12.368,12.368,0,0,1,169.2,220.4a12.824,12.824,0,0,1,.981,4.9,12.53,12.53,0,0,1-.981,4.871,12.35,12.35,0,0,1-2.672,3.991,13.223,13.223,0,0,1-3.991,2.706,12.825,12.825,0,0,1-4.9.981A12.531,12.531,0,0,1,152.764,236.87Zm-1.218-17.658a8.576,8.576,0,1,0,6.089-2.537A8.576,8.576,0,0,0,151.546,219.213Z" transform="translate(-103.085 570.809)" fill="#a3a3a3"/>
    <path id="Path_23" data-name="Path 23" d="M149.3,225.976a6.876,6.876,0,0,1-4.21-6.343,7.031,7.031,0,0,1,.538-2.689,7.254,7.254,0,0,1,1.484-2.189,6.775,6.775,0,0,1,2.188-1.465,6.87,6.87,0,0,1,2.671-.538,7.032,7.032,0,0,1,2.689.538,6.781,6.781,0,0,1,3.654,3.654,7.031,7.031,0,0,1,.538,2.689,6.87,6.87,0,0,1-.538,2.671,6.771,6.771,0,0,1-1.465,2.188,7.249,7.249,0,0,1-2.188,1.484,7.032,7.032,0,0,1-2.689.538A6.871,6.871,0,0,1,149.3,225.976Zm-.668-9.681a4.7,4.7,0,1,0,3.338-1.391A4.7,4.7,0,0,0,148.627,216.294Z" transform="translate(-97.416 576.478)" fill="#a3a3a3"/>
  </g>
</svg>
