<svg xmlns="http://www.w3.org/2000/svg" width="40.111" height="40.111" viewBox="0 0 40.111 40.111">
  <g id="Group_1031" data-name="Group 1031" transform="translate(0 0)">
    <path id="Path_22" data-name="Path 22" d="M157.356,251.3a20.042,20.042,0,0,1-12.271-18.487,20.493,20.493,0,0,1,1.568-7.839,21.143,21.143,0,0,1,4.325-6.379,19.748,19.748,0,0,1,6.379-4.271,20.026,20.026,0,0,1,7.784-1.568,20.5,20.5,0,0,1,7.839,1.568,19.765,19.765,0,0,1,10.649,10.65,20.493,20.493,0,0,1,1.568,7.839,20.024,20.024,0,0,1-1.568,7.784,19.735,19.735,0,0,1-4.271,6.379,21.133,21.133,0,0,1-6.379,4.325,20.5,20.5,0,0,1-7.839,1.568A20.027,20.027,0,0,1,157.356,251.3Zm-1.946-28.218a13.7,13.7,0,1,0,9.731-4.054A13.706,13.706,0,0,0,155.41,223.077Z" transform="translate(-145.085 -212.752)" fill="#008ebe"/>
    <path id="Path_23" data-name="Path 23" d="M151.813,233.884a10.988,10.988,0,0,1-6.728-10.136,11.236,11.236,0,0,1,.86-4.3,11.592,11.592,0,0,1,2.371-3.5,10.827,10.827,0,0,1,3.5-2.341,10.979,10.979,0,0,1,4.268-.859,11.237,11.237,0,0,1,4.3.859,10.836,10.836,0,0,1,5.839,5.839,11.237,11.237,0,0,1,.86,4.3,10.979,10.979,0,0,1-.86,4.268,10.82,10.82,0,0,1-2.341,3.5,11.585,11.585,0,0,1-3.5,2.371,11.237,11.237,0,0,1-4.3.86A10.98,10.98,0,0,1,151.813,233.884Zm-1.067-15.472a7.514,7.514,0,1,0,5.335-2.223A7.514,7.514,0,0,0,150.746,218.413Z" transform="translate(-136.026 -203.692)" fill="#141e3c"/>
  </g>
</svg>
