<svg xmlns="http://www.w3.org/2000/svg" width="32.601" height="43.664" viewBox="0 0 32.601 43.664">
  <path id="Path_428" data-name="Path 428" d="M324.711,48.346a16.547,16.547,0,0,1,14.7-16.746,16.191,16.191,0,0,1,17.534,13.205,15.856,15.856,0,0,1-2.686,12.873c-2.218,3.032-4.949,5.689-7.2,8.7-1.843,2.469-3.3,5.226-4.96,7.832-.264.413-.71.956-1.1.976a1.6,1.6,0,0,1-1.136-.889c-1.872-4.38-4.916-7.912-8.012-11.443a56.234,56.234,0,0,1-5.295-7.012A13.256,13.256,0,0,1,324.711,48.346Zm24.968-.547a8.738,8.738,0,0,0-8.792-8.751,8.741,8.741,0,1,0,.264,17.479A8.658,8.658,0,0,0,349.678,47.8Z" transform="translate(-324.703 -31.524)" fill="#189ec9"/>
</svg>
