<svg xmlns="http://www.w3.org/2000/svg" width="14.857" height="19.899" viewBox="0 0 14.857 19.899">
  <path id="Path_26" data-name="Path 26" d="M324.707,39.19a7.541,7.541,0,0,1,6.7-7.632,7.378,7.378,0,0,1,7.991,6.018,7.226,7.226,0,0,1-1.224,5.867c-1.011,1.382-2.255,2.593-3.28,3.966-.84,1.125-1.5,2.382-2.26,3.569-.12.188-.323.436-.5.445a.727.727,0,0,1-.518-.405,20.029,20.029,0,0,0-3.651-5.215,25.629,25.629,0,0,1-2.413-3.2A6.042,6.042,0,0,1,324.707,39.19Zm11.378-.249a3.982,3.982,0,0,0-4.007-3.988,3.983,3.983,0,1,0,.12,7.966A3.946,3.946,0,0,0,336.085,38.941Z" transform="translate(-324.703 -31.524)" fill="#141e3c"/>
</svg>
