<svg xmlns="http://www.w3.org/2000/svg" width="37.118" height="37.12" viewBox="0 0 37.118 37.12">
  <g id="Group_1037" data-name="Group 1037" transform="translate(1833.943 1377.192)">
    <path id="Path_1233" data-name="Path 1233" d="M-1813.336-1344.206v4.125c-.076,0-.142.009-.207.009q-8.1,0-16.207,0a4.111,4.111,0,0,1-4.094-3.261,4.43,4.43,0,0,1-.1-.938q-.008-14.365,0-28.729a4.117,4.117,0,0,1,3.5-4.139,4.018,4.018,0,0,1,.661-.049q8.124,0,16.247,0h.194v4.127H-1829.8v28.859Z" transform="translate(0)" fill="#189ec9"/>
    <path id="Path_1234" data-name="Path 1234" d="M-1782.57-1313.492v-4.121h16.488v-8.255l12.372,10.309-12.359,10.3v-8.233Z" transform="translate(-43.115 -43.074)" fill="#189ec9"/>
  </g>
</svg>
