<?xml version="1.0" encoding="UTF-8"?><svg id="Layer_1" data-name="Layer 1" xmlns="http://www.w3.org/2000/svg" viewBox="0 0 96.22 78.92">  <defs>    <style>      .cls-1 {        fill: #4a494a;      }      .cls-2 {        fill: none;        stroke: #1c1d1e;        stroke-linecap: round;        stroke-linejoin: round;        stroke-width: 4px;      }    </style>  </defs>  <g>    <path class="cls-2" d="m7.55,41.48l8.99,29.4c1.02,3.32,4.69,6.04,8.16,6.04h40.92c3.47,0,6.88-1.83,7.56-4.07l1.24-4.07"/>    <rect class="cls-2" x="37.97" y="12.2" width="29.72" height="8.96" rx="2.61" ry="2.61" transform="translate(17.77 59.58) rotate(-68.26)"/>    <polyline class="cls-2" points="70.38 29.04 88.33 29.04 88.33 40.84 2 40.84 2 29.04 30.08 29.04"/>  </g>  <g>    <path class="cls-1" d="m33.45,69.48l5.2-26.54,8.47,19.18,8.78-19.18,4.67,26.54h-3.82l-2.38-14.9-7.31,16.03-7.1-16.05-2.65,14.92h-3.85Z"/>    <path class="cls-1" d="m64.56,47.44c0-.63.23-1.17.69-1.63.46-.46,1.01-.69,1.65-.69s1.2.23,1.66.69c.46.45.69,1,.69,1.65s-.23,1.2-.69,1.66c-.45.46-1,.69-1.65.69s-1.2-.23-1.66-.69c-.46-.46-.69-1.02-.69-1.68Zm4.14,6.47v15.57h-3.6v-15.57h3.6Z"/>    <path class="cls-1" d="m73.26,53.91h3.61v1.44c1.26-1.25,2.67-1.87,4.25-1.87,1.81,0,3.22.57,4.24,1.71.87.97,1.31,2.55,1.31,4.75v9.54h-3.61v-8.7c0-1.54-.21-2.6-.64-3.18-.42-.6-1.17-.9-2.27-.9-1.19,0-2.04.39-2.54,1.18-.49.78-.74,2.14-.74,4.08v7.51h-3.61v-15.57Z"/>    <path class="cls-1" d="m91.77,67.69c0-.6.22-1.11.66-1.55.44-.44.96-.66,1.57-.66s1.13.22,1.57.66.66.96.66,1.57-.22,1.15-.66,1.58c-.43.43-.95.64-1.57.64s-1.16-.21-1.58-.64c-.43-.43-.64-.96-.64-1.6Z"/>  </g></svg>