<svg xmlns="http://www.w3.org/2000/svg" width="46.501" height="47.746" viewBox="0 0 46.501 47.746">
  <g id="Group_1035" data-name="Group 1035" transform="translate(0)">
    <rect id="Rectangle_396" data-name="Rectangle 396" width="5" height="5" rx="2.5" transform="translate(7.438 28.644)" fill="#141e3c"/>
    <rect id="Rectangle_397" data-name="Rectangle 397" width="5" height="4" rx="2" transform="translate(7.438 9.644)" fill="#141e3c"/>
    <rect id="Rectangle_398" data-name="Rectangle 398" width="15" height="2" rx="1" transform="translate(15.438 9.644)" fill="#189ec9"/>
    <rect id="Rectangle_399" data-name="Rectangle 399" width="15" height="3" rx="1.5" transform="translate(15.438 19.644)" fill="#189ec9"/>
    <rect id="Rectangle_400" data-name="Rectangle 400" width="6" height="3" rx="1.5" transform="translate(15.438 29.644)" fill="#189ec9"/>
    <path id="Path_1228" data-name="Path 1228" d="M-1615.866-882.036c-1.1.037-2.2.009-3.443.009,0-1.426-.006-2.7,0-3.969.006-.977-.669-.955-1.355-.971-.711-.017-1.355.024-1.357.971,0,1.966-.028,3.933.03,5.9a1.012,1.012,0,0,0,.691.705c1.826.061,3.655.036,5.483.033,1,0,1.033-.687,1.039-1.429C-1614.77-881.548-1614.949-882.067-1615.866-882.036Z" transform="translate(1654.406 918.116)" fill="#141e3c"/>
    <path id="Path_1229" data-name="Path 1229" d="M-1736.848-947.866a.623.623,0,0,0-.875.1l-1.97,2.5-.774-.678a.623.623,0,0,0-.879.058.623.623,0,0,0,.059.879l1.76,1.54,2.782-3.524A.622.622,0,0,0-1736.848-947.866Z" transform="translate(1749.078 966.476)" fill="#141e3c"/>
    <path id="Path_1230" data-name="Path 1230" d="M-1739.554-1011.765c0-.034,0-.066,0-.1q.033-10.794.013-21.589c0-2.093-.441-2.756-2.335-3.545h-33.838a3.561,3.561,0,0,0-2.283,2.491v40.065c.6,1.774,1.824,2.447,3.7,2.431,7.491-.061,14.983-.042,22.474,0a6.476,6.476,0,0,1,2.086.625l.1.039a11.465,11.465,0,0,0,6.615,2.091,11.521,11.521,0,0,0,11.521-11.521A11.526,11.526,0,0,0-1739.554-1011.765Zm-35.045,17.319c-.878,0-.909-.465-.908-1.122q.016-12.764.007-25.528c0-4.116.018-8.233-.015-12.349-.006-.8.2-1.083,1.046-1.081q15.721.04,31.443.006c.706,0,1.088.12,1.086.947-.021,7.091-.011,14.182-.016,21.273,0,.018,0,.036,0,.054-.349-.032-.7-.051-1.061-.051a11.522,11.522,0,0,0-11.4,9.843,11.849,11.849,0,0,0,1.517,7.995C-1760.211-994.459-1767.4-994.469-1774.6-994.446Zm31.481,3.157a9.548,9.548,0,0,1-9.533-9.509,9.635,9.635,0,0,1,9.523-9.558,9.557,9.557,0,0,1,9.552,9.722A9.466,9.466,0,0,1-1743.118-991.289Z" transform="translate(1778 1037)" fill="#189ec9"/>
  </g>
</svg>
