<svg xmlns="http://www.w3.org/2000/svg" width="23" height="15.51" viewBox="0 0 23 15.51">
  <g id="Group_1005" data-name="Group 1005" transform="translate(0 0)">
    <path id="Path_1210" data-name="Path 1210" d="M-1795.761-526.168h-8.713a2.666,2.666,0,0,1-2.778-2.87c.026-3,0-5.992,0-8.988,0-.359,0-.719.018-1.078a2.62,2.62,0,0,1,2.709-2.572q5.216-.007,10.432,0,3.537,0,7.074,0a2.628,2.628,0,0,1,2.764,2.758q.007,5.033,0,10.067a2.582,2.582,0,0,1-2.673,2.673c-2.944.01-5.889,0-8.833,0Zm-9.687-8.394c0,.166,0,.3,0,.427q0,2.577.007,5.154c0,.7.317,1.022,1.028,1.022q8.653,0,17.307-.006c.767,0,1.055-.3,1.056-1.069l.006-5.074c0-.143,0-.286,0-.453Zm.013-3.295h19.385c0-.337,0-.64,0-.944-.006-.779-.288-1.064-1.059-1.064q-2.677,0-5.354,0-5.993,0-11.986,0c-.589,0-.937.26-.979.769C-1805.463-538.7-1805.436-538.3-1805.436-537.857Z" transform="translate(1807.252 541.678)"/>
    <path id="Path_1211" data-name="Path 1211" d="M-1780.873-487.36h-4.355a2.717,2.717,0,0,1-.28-.007.651.651,0,0,1-.595-.639.649.649,0,0,1,.578-.615,3.6,3.6,0,0,1,.439-.008h8.671c.053,0,.106,0,.16,0a.645.645,0,0,1,.668.647.625.625,0,0,1-.691.615c-1.345.006-2.69,0-4.036,0h-.559Z" transform="translate(1789.606 497.421)"/>
  </g>
</svg>
