<svg xmlns="http://www.w3.org/2000/svg" width="37.249" height="40.894" viewBox="0 0 37.249 40.894">
  <g id="Group_1003" data-name="Group 1003" transform="translate(1944.988 233.976)">
    <path id="Path_1204" data-name="Path 1204" d="M-1941.774-225.637h-1.881a1.292,1.292,0,0,1-1.333-1.274,1.291,1.291,0,0,1,1.315-1.292c.539-.007,1.078,0,1.617,0h.28v-.733c0-1.017-.007-2.034,0-3.05a1.915,1.915,0,0,1,1.493-1.94,2.258,2.258,0,0,1,.5-.041q6.932,0,13.865,0,6.459,0,12.918-.006a1.939,1.939,0,0,1,1.7.835,2,2,0,0,1,.34,1.2c0,1.14,0,2.28,0,3.42v.3c.1.006.181.015.262.015.562,0,1.125-.01,1.687,0a1.284,1.284,0,0,1,1.262,1.178,1.287,1.287,0,0,1-1.057,1.367,1.558,1.558,0,0,1-.3.02c-.593,0-1.186,0-1.779,0a.475.475,0,0,0-.081.023v.467q0,5.812.005,11.623,0,6.25,0,12.5,0,3.085,0,6.169a1.6,1.6,0,0,1-.813,1.5,1.591,1.591,0,0,1-1.745-.113c-.809-.521-1.614-1.047-2.421-1.571-1.02-.662-2.043-1.319-3.059-1.987a.307.307,0,0,0-.389,0q-2.814,1.769-5.635,3.529a2.385,2.385,0,0,1-2.185.256,2.592,2.592,0,0,1-.49-.255q-2.759-1.751-5.51-3.512a.352.352,0,0,0-.448,0c-1.808,1.159-3.623,2.306-5.433,3.462a1.924,1.924,0,0,1-1.343.386,1.572,1.572,0,0,1-1.331-1.374,3.543,3.543,0,0,1-.021-.438q0-7.649,0-15.3,0-7.545,0-15.089Zm2.575.005v29.1c.067-.037.114-.06.158-.088,1.4-.889,2.8-1.77,4.186-2.669a2.4,2.4,0,0,1,2.811-.026c1.828,1.17,3.663,2.329,5.49,3.5a.317.317,0,0,0,.4,0q2.823-1.777,5.656-3.541a2.251,2.251,0,0,1,2.531-.047c1.326.826,2.625,1.695,3.936,2.545.157.1.317.2.494.31v-29.085Zm0-2.592h25.665V-231.4H-1939.2Z" fill="#189ec9"/>
    <path id="Path_1205" data-name="Path 1205" d="M-1870.422-99.229q4,0,7.994,0a1.3,1.3,0,0,1,1.245.829,1.274,1.274,0,0,1-.36,1.429,1.259,1.259,0,0,1-.869.319c-2.172,0-4.344,0-6.515,0q-3.3,0-6.608,0c-.947,0-1.894,0-2.842,0a1.289,1.289,0,0,1-1.34-1.291,1.284,1.284,0,0,1,1.346-1.283q3.974,0,7.948,0Z" transform="translate(-55.636 -114.852)" fill="#141e3c"/>
    <path id="Path_1206" data-name="Path 1206" d="M-1872.669-144.508c-1.917,0-3.835,0-5.752,0a1.293,1.293,0,0,1-1.268-1.066,1.267,1.267,0,0,1,.885-1.439,2.058,2.058,0,0,1,.569-.068q3.939-.006,7.878,0c1.147,0,2.295,0,3.442,0a1.283,1.283,0,0,1,1.331,1.321,1.3,1.3,0,0,1-1.332,1.254c-1.633,0-3.265,0-4.9,0h-.855Z" transform="translate(-55.645 -74.061)" fill="#141e3c"/>
    <path id="Path_1207" data-name="Path 1207" d="M-1872.657-48.778q-2.83,0-5.659,0a1.387,1.387,0,0,1-1.017-.356,1.287,1.287,0,0,1-.315-1.4,1.28,1.28,0,0,1,1.185-.811q5.763,0,11.527,0a1.279,1.279,0,0,1,1.323,1.28,1.268,1.268,0,0,1-1.315,1.283c-1.91.006-3.82,0-5.729,0Z" transform="translate(-55.618 -155.666)" fill="#141e3c"/>
  </g>
</svg>
