<svg xmlns="http://www.w3.org/2000/svg" xmlns:xlink="http://www.w3.org/1999/xlink" width="45.977" height="46.646" viewBox="0 0 45.977 46.646">
  <defs>
    <clipPath id="clip-path">
      <rect id="Rectangle_486" data-name="Rectangle 486" width="45.977" height="46.646" fill="#189ec9"/>
    </clipPath>
  </defs>
  <g id="Group_1177" data-name="Group 1177" clip-path="url(#clip-path)">
    <path id="Path_1405" data-name="Path 1405" d="M45.977,17.6a2.745,2.745,0,0,1-.226.48.9.9,0,0,1-.884.372l-3.587-.4-4.378-.5-3.889-.442c-.605-.069-1.211-.142-1.816-.208a.932.932,0,0,1-.853-.661.919.919,0,0,1,.3-1.035l3.493-3.132,1.133-1.015a1.391,1.391,0,0,1-.227-.138,17.033,17.033,0,1,0-19.433,27.6A16.836,16.836,0,0,0,24.743,40.4,17.046,17.046,0,0,0,39.832,28.073a3.043,3.043,0,0,1,6,.672,4.566,4.566,0,0,1-.291,1.6A23.125,23.125,0,0,1,34.783,43.613a22.558,22.558,0,0,1-8.34,2.8c-.688.091-1.384.129-2.076.193-.085.008-.169.025-.253.037H22.473a2.433,2.433,0,0,0-.253-.037,22.1,22.1,0,0,1-5.258-.86A22.831,22.831,0,0,1,4.518,37.1,22.819,22.819,0,0,1,.3,19.642,22.54,22.54,0,0,1,5.8,7.951,23,23,0,0,1,20.718.161a22.259,22.259,0,0,1,7.755.433A23.23,23.23,0,0,1,38.515,5.662c.467.4.913.827,1.381,1.253l.383-.341Q42.3,4.759,44.33,2.944a.947.947,0,0,1,1.483.14c.063.1.11.2.164.3Z" transform="translate(0 0)" fill="#189ec9"/>
  </g>
</svg>
