<svg xmlns="http://www.w3.org/2000/svg" width="34.733" height="34.76" viewBox="0 0 34.733 34.76">
  <g id="Group_10" data-name="Group 10" transform="translate(-582.141 -98.694)">
    <path id="Path_28" data-name="Path 28" d="M594.355,98.694a12.2,12.2,0,1,1-12.214,12.144A12.2,12.2,0,0,1,594.355,98.694Zm10.463,12.244a10.481,10.481,0,1,0-10.447,10.448A10.446,10.446,0,0,0,604.818,110.938Z" fill="#b4b4b4"/>
    <path id="Path_29" data-name="Path 29" d="M643.205,162.08l2.111-2.089c.3.316.612.676.95,1.014q5.173,5.182,10.356,10.354a1.2,1.2,0,0,1,.394,1.368,1.653,1.653,0,0,1-1.321,1.1,1.215,1.215,0,0,1-1.041-.42q-2.383-2.393-4.774-4.778-3.163-3.163-6.328-6.324A1.971,1.971,0,0,0,643.205,162.08Z" transform="translate(-40.23 -40.383)" fill="#b4b4b4"/>
    <path id="Path_30" data-name="Path 30" d="M609.937,110.273a8.271,8.271,0,0,1,6.562,3.265.7.7,0,0,1-.067,1.084c-.332.244-.718.148-1.03-.255a6.885,6.885,0,0,0-8.468-2.046c-.021.01-.042.022-.063.031a.694.694,0,1,1-.584-1.243,8.235,8.235,0,0,1,3.367-.836C609.748,110.27,609.842,110.273,609.937,110.273Z" transform="translate(-15.581 -7.628)" fill="#b4b4b4"/>
  </g>
</svg>
