<svg xmlns="http://www.w3.org/2000/svg" width="54.198" height="42.383" viewBox="0 0 54.198 42.383">
  <g id="Group_9" data-name="Group 9" transform="translate(0)">
    <path id="Path_26" data-name="Path 26" d="M324.709,44.166a12.435,12.435,0,0,1,11.044-12.585A12.167,12.167,0,0,1,348.93,41.5a11.916,11.916,0,0,1-2.018,9.674c-1.667,2.278-3.719,4.275-5.409,6.539-1.385,1.856-2.477,3.928-3.727,5.886-.2.311-.533.718-.823.733a1.2,1.2,0,0,1-.854-.668c-1.407-3.292-3.694-5.946-6.021-8.6A42.252,42.252,0,0,1,326.1,49.8,9.962,9.962,0,0,1,324.709,44.166Zm18.763-.411a6.567,6.567,0,0,0-6.607-6.577,6.569,6.569,0,1,0,.2,13.135A6.507,6.507,0,0,0,343.472,43.754Z" transform="translate(-309.811 -31.524)" fill="#141e3c"/>
    <path id="Path_27" data-name="Path 27" d="M301.032,103.6c-2.684,0-5.115.037-7.544-.018a1.915,1.915,0,0,0-2.029,1.252c-1.546,3.294-3.166,6.553-4.756,9.826-.119.245-.218.5-.375.864h44.082c-.113-.277-.2-.533-.319-.774-1.619-3.329-3.264-6.645-4.85-9.989a1.788,1.788,0,0,0-1.879-1.176c-2.457.053-4.915.018-7.672.018,1.073-1.181,1.962-2.192,2.9-3.158a1.211,1.211,0,0,1,.785-.2c2.152-.016,4.3.01,6.457-.022a1.345,1.345,0,0,1,1.384.863c2.633,5.429,5.289,10.848,7.926,16.276.622,1.28.347,1.688-1.084,1.688q-25.639.005-51.278.006c-.187,0-.375.008-.561-.007-.91-.07-1.172-.459-.794-1.28.612-1.327,1.264-2.636,1.9-3.95,2.03-4.167,4.076-8.325,6.08-12.5a1.633,1.633,0,0,1,1.72-1.092c2.026.059,4.054,0,6.081.03a1.6,1.6,0,0,1,1.03.29C299.15,101.47,300,102.46,301.032,103.6Z" transform="translate(-281.251 -76.683)" fill="#189ec9"/>
  </g>
</svg>
