<svg xmlns="http://www.w3.org/2000/svg" width="76.22" height="66.137" viewBox="0 0 76.22 66.137">
  <g id="Group_1651" data-name="Group 1651" transform="translate(-1174.656 42.164)">
    <path id="Path_10" data-name="Path 10" d="M1261.2,38.208c-2.124.331-4.015.579-5.887.932-1.966.37-3.916.832-5.868,1.27a4.272,4.272,0,0,1-5.279-3.08,4.2,4.2,0,0,1,3.148-5.14,68.48,68.48,0,0,1,12.708-2.567c4.535-.376,8.874.311,12.365,3.384,3.473,3.057,7.4,3.506,11.657,2.839a43.5,43.5,0,0,0,5.065-1.188,4.291,4.291,0,0,1,5.288,2.514,4.184,4.184,0,0,1-2.328,5.421,25.5,25.5,0,0,1-7.865,1.92,24.871,24.871,0,0,1-10.506-.976l-4.372,7.556c1.51.927,3.087,1.895,4.663,2.865.175.108.335.242.509.352a10.723,10.723,0,0,1,5.093,7.37c.907,4.659,2.068,9.263,1.881,14.061a4.876,4.876,0,0,1-4.684,4.547,4.666,4.666,0,0,1-4.681-4.184c-.131-1.319-.134-2.656-.334-3.963-.428-2.793-.926-5.576-1.455-8.352a1.48,1.48,0,0,0-.769-.879q-3.679-1.713-7.41-3.31c-.2-.085-.626.135-.832.333-1.567,1.51-3.092,3.064-4.664,4.569a11.909,11.909,0,0,1-1.441,1.021,9.946,9.946,0,0,1-9.852,1.242,108.173,108.173,0,0,1-12.216-5.32A4.728,4.728,0,1,1,1237.385,53c3.306,1.548,6.623,3.071,9.922,4.633a1.189,1.189,0,0,0,1.629-.285c1.4-1.7,2.935-3.308,4.2-5.107a92,92,0,0,0,7.547-12.874C1260.817,39.08,1260.942,38.785,1261.2,38.208Zm3.991,13.72a36.076,36.076,0,0,0,6.844-11.985,27.8,27.8,0,0,0,2.572,1.1,24.6,24.6,0,0,0,16.359-.816,1.558,1.558,0,0,0,1.008-2.063,1.681,1.681,0,0,0-2.16-1c-2.236.5-4.466,1.09-6.731,1.382-4.333.559-8.373-.118-11.816-3.154-3.21-2.83-7.078-3.546-11.239-3.159a69.965,69.965,0,0,0-11.844,2.406c-1.152.313-1.737,1.105-1.51,2.015.25,1,1.105,1.428,2.3,1.187,3.087-.623,6.163-1.321,9.271-1.809,2.243-.352,4.532-.416,6.979-.624-.237.6-.362.925-.494,1.248a99.337,99.337,0,0,1-10.062,18.027,26.488,26.488,0,0,1-5.4,5.8,1.075,1.075,0,0,1-1.265.2c-1.782-.773-3.609-1.445-5.375-2.251-2.143-.978-4.237-2.06-6.36-3.083a2.122,2.122,0,1,0-1.951,3.761c.386.214.781.414,1.177.61a67.539,67.539,0,0,0,12.854,5.134,4.326,4.326,0,0,0,2.829-.2,19.741,19.741,0,0,0,7.764-5.979c.637-.764,1.143-2,1.915-2.19.836-.208,1.941.483,2.879.9,2.423,1.066,4.837,2.156,7.215,3.317a2.853,2.853,0,0,1,1.8,1.927c.3,1.5.7,2.987.914,4.5.375,2.681.625,5.38.965,8.066a4.209,4.209,0,0,0,.489,1.653,1.912,1.912,0,0,0,2.2.687,2.134,2.134,0,0,0,1.549-2.035c.155-4.108-.883-8.055-1.526-12.066a10.207,10.207,0,0,0-5.584-7.838c-.129-.07-.247-.162-.375-.233C1269.356,54.241,1267.328,53.114,1265.193,51.928Z" transform="translate(-43.815 -56.316)" fill="#fff"/>
    <path id="Path_11" data-name="Path 11" d="M1418.072-34.278a7.709,7.709,0,0,1-7.768,7.549,7.724,7.724,0,0,1-7.655-8.018,7.743,7.743,0,0,1,7.992-7.413A7.723,7.723,0,0,1,1418.072-34.278Zm-7.717,4.944a5.115,5.115,0,0,0,5.116-5.016,5.129,5.129,0,0,0-5.013-5.211,5.141,5.141,0,0,0-5.21,5.108A5.132,5.132,0,0,0,1410.355-29.334Z" transform="translate(-179.088 0)" fill="#fff"/>
    <path id="Path_12" data-name="Path 12" d="M1186.292,30.7q-4.822,0-9.644,0c-.324,0-.728.1-.955-.054-.422-.286-.988-.7-1.034-1.107s.416-.938.771-1.3c.176-.18.612-.14.931-.14q9.909-.011,19.818-.006a4.555,4.555,0,0,1,.531.009,1.353,1.353,0,0,1,1.273,1.339,1.27,1.27,0,0,1-1.34,1.243c-1.562.029-3.126.014-4.689.015q-2.831,0-5.662,0Z" transform="translate(0 -55.186)" fill="#fff"/>
    <path id="Path_13" data-name="Path 13" d="M1234.507-7.956q4.995,0,9.989,0a4.31,4.31,0,0,1,.966.066,1.165,1.165,0,0,1,.958,1.211,1.157,1.157,0,0,1-.925,1.235,4.279,4.279,0,0,1-1.053.084q-9.9.007-19.8,0c-1.506,0-2.086-.363-2.1-1.286-.009-.959.58-1.319,2.149-1.318Z" transform="translate(-37.617 -26.87)" fill="#fff"/>
    <path id="Path_14" data-name="Path 14" d="M1238.3,66.847c-1.059,0-2.119.009-3.178,0-.906-.01-1.491-.506-1.514-1.255a1.335,1.335,0,0,1,1.443-1.339q3.31-.029,6.621,0a1.3,1.3,0,1,1-.016,2.59C1240.531,66.86,1239.413,66.847,1238.3,66.847Z" transform="translate(-46.302 -83.58)" fill="#fff"/>
  </g>
</svg>
