<svg id="Group_3" data-name="Group 3" xmlns="http://www.w3.org/2000/svg" width="91.722" height="79.589" viewBox="0 0 91.722 79.589">
  <path id="Path_10" data-name="Path 10" d="M1267.46,39.973c-2.555.4-4.832.7-7.085,1.121-2.366.446-4.712,1-7.062,1.528a5.141,5.141,0,0,1-6.353-3.707,5.053,5.053,0,0,1,3.788-6.186,82.411,82.411,0,0,1,15.293-3.089c5.458-.452,10.679.374,14.879,4.072,4.179,3.679,8.906,4.219,14.028,3.417a52.349,52.349,0,0,0,6.1-1.429,5.164,5.164,0,0,1,6.364,3.025,5.035,5.035,0,0,1-2.8,6.524,30.682,30.682,0,0,1-9.465,2.311,29.93,29.93,0,0,1-12.642-1.174l-5.261,9.093c1.817,1.115,3.715,2.28,5.611,3.448.211.13.4.291.612.424a12.9,12.9,0,0,1,6.129,8.869c1.091,5.607,2.488,11.147,2.264,16.92a5.867,5.867,0,0,1-5.636,5.472,5.615,5.615,0,0,1-5.633-5.035c-.158-1.588-.161-3.2-.4-4.769-.515-3.361-1.114-6.71-1.751-10.05a1.781,1.781,0,0,0-.925-1.057q-4.427-2.062-8.917-3.983c-.239-.1-.753.163-1,.4-1.886,1.817-3.721,3.687-5.612,5.5a14.341,14.341,0,0,1-1.734,1.229,11.968,11.968,0,0,1-11.856,1.495,130.173,130.173,0,0,1-14.7-6.4,5.689,5.689,0,1,1,5.113-10.163c3.978,1.863,7.97,3.7,11.94,5.576a1.43,1.43,0,0,0,1.961-.344c1.69-2.044,3.532-3.981,5.049-6.146a110.705,110.705,0,0,0,9.082-15.493C1267,41.022,1267.146,40.668,1267.46,39.973Zm4.8,16.51c3.546-4.4,6.577-9.022,8.236-14.423a33.453,33.453,0,0,0,3.1,1.322c6.675,2.079,13.234,1.437,19.687-.982a1.875,1.875,0,0,0,1.213-2.482,2.023,2.023,0,0,0-2.6-1.2c-2.691.6-5.374,1.312-8.1,1.664-5.215.673-10.075-.142-14.219-3.8-3.863-3.406-8.518-4.267-13.525-3.8a84.2,84.2,0,0,0-14.254,2.9c-1.386.376-2.09,1.33-1.818,2.425.3,1.208,1.33,1.718,2.766,1.428,3.714-.75,7.416-1.589,11.157-2.177,2.7-.424,5.453-.5,8.4-.751-.285.722-.436,1.113-.595,1.5A119.535,119.535,0,0,1,1259.6,59.8a31.874,31.874,0,0,1-6.5,6.985,1.294,1.294,0,0,1-1.523.241c-2.145-.93-4.343-1.739-6.469-2.708-2.579-1.177-5.1-2.479-7.653-3.71a2.553,2.553,0,1,0-2.348,4.526c.465.258.94.5,1.417.734a81.277,81.277,0,0,0,15.469,6.178,5.206,5.206,0,0,0,3.4-.239,23.756,23.756,0,0,0,9.343-7.2c.766-.919,1.376-2.4,2.3-2.635,1.006-.251,2.336.582,3.464,1.078,2.916,1.282,5.821,2.595,8.682,3.992a3.433,3.433,0,0,1,2.172,2.319c.364,1.806.844,3.595,1.1,5.416.452,3.227.752,6.474,1.162,9.707a5.065,5.065,0,0,0,.589,1.99,2.3,2.3,0,0,0,2.647.826,2.568,2.568,0,0,0,1.864-2.449c.187-4.944-1.062-9.693-1.837-14.521a12.283,12.283,0,0,0-6.72-9.432c-.156-.084-.3-.195-.452-.281C1277.272,59.267,1274.831,57.911,1272.263,56.484Z" transform="translate(-1216.038 -11.024)" fill="#141e3c"/>
  <path id="Path_11" data-name="Path 11" d="M1421.21-32.674a9.277,9.277,0,0,1-9.348,9.084,9.3,9.3,0,0,1-9.212-9.649,9.318,9.318,0,0,1,9.618-8.921A9.294,9.294,0,0,1,1421.21-32.674Zm-9.287,5.95a6.155,6.155,0,0,0,6.156-6.036,6.172,6.172,0,0,0-6.033-6.271,6.187,6.187,0,0,0-6.27,6.146A6.176,6.176,0,0,0,1411.923-26.725Z" transform="translate(-1343.799 42.165)" fill="#141e3c"/>
  <path id="Path_12" data-name="Path 12" d="M1188.658,31.233q-5.8,0-11.605,0c-.39,0-.876.119-1.149-.066-.508-.344-1.189-.839-1.244-1.332s.5-1.129.927-1.565c.212-.217.737-.169,1.12-.169q11.925-.013,23.849-.007a5.481,5.481,0,0,1,.639.011,1.628,1.628,0,0,1,1.532,1.611,1.528,1.528,0,0,1-1.613,1.5c-1.88.035-3.762.017-5.643.019q-3.407,0-6.814,0Z" transform="translate(-1174.657 -9.956)" fill="#189ec9"/>
  <path id="Path_13" data-name="Path 13" d="M1236.94-7.956q6.011,0,12.021,0a5.188,5.188,0,0,1,1.162.079,1.4,1.4,0,0,1,1.152,1.457,1.392,1.392,0,0,1-1.113,1.486,5.149,5.149,0,0,1-1.267.1q-11.914.009-23.829,0c-1.812,0-2.51-.437-2.521-1.548-.011-1.154.7-1.587,2.586-1.586Z" transform="translate(-1210.185 16.787)" fill="#189ec9"/>
  <path id="Path_14" data-name="Path 14" d="M1239.25,67.378c-1.275,0-2.55.011-3.825,0-1.09-.012-1.795-.609-1.822-1.51a1.606,1.606,0,0,1,1.736-1.611q3.984-.034,7.968,0a1.565,1.565,0,1,1-.02,3.117C1241.941,67.393,1240.6,67.377,1239.25,67.378Z" transform="translate(-1218.388 -36.774)" fill="#189ec9"/>
</svg>
