<svg xmlns="http://www.w3.org/2000/svg" width="61.965" height="56.164" viewBox="0 0 61.965 56.164">
  <g id="Group_1654" data-name="Group 1654" transform="translate(-783.672 -45.109)">
    <path id="Path_31" data-name="Path 31" d="M783.672,47.132h0a2.023,2.023,0,0,1,2.023-2.023h4.044a8.769,8.769,0,0,1,2.831.419c2.429.826,4.223,2.658,5.059,6.133.367,1.526,1.064,1.683,2.348,1.679q21.221-.047,42.44-.019a3.049,3.049,0,0,1,3.1,3.956c-1.592,6.425-3.247,12.835-4.746,19.281-.442,1.9-1.38,2.543-3.269,2.532-9.931-.058-19.862-.027-29.793-.027H805.2c.81,4.48,1.968,5.543,6.094,5.561,7.68.033,18.668.017,26.885.02a2.1,2.1,0,0,1,2.094,2.119h0a2.1,2.1,0,0,1-2.094,2.082c-8.27,0-18.88.019-26.71-.011-5.929-.023-8.548-1.831-10.148-7.5-2.552-9.037-4.886-18.136-7.3-27.212-1.18-4.444-1.778-4.93-6.3-4.971l-2.023,0A2.024,2.024,0,0,1,783.672,47.132Zm19.657,24.616a4.243,4.243,0,0,0,4.115,3.114c8.042-.047,17.068-.014,24.8-.014,4.64,0,4.661,0,5.771-4.429,1.061-4.233,2.073-8.478,3.137-12.842H799.409Z" transform="translate(0 0)" fill="#fff"/>
    <path id="Path_32" data-name="Path 32" d="M815.426,113.735a5.032,5.032,0,0,1-5.005-5.027,5.153,5.153,0,0,1,5-5.092,5.243,5.243,0,0,1,5.16,5.189A5.146,5.146,0,0,1,815.426,113.735Z" transform="translate(-5.698 -12.462)" fill="#fff"/>
    <path id="Path_33" data-name="Path 33" d="M848.517,108.694a4.962,4.962,0,0,1-4.955,5.042,5.091,5.091,0,0,1-5.147-5.126,5.206,5.206,0,0,1,5.121-4.994A5.1,5.1,0,0,1,848.517,108.694Z" transform="translate(-11.66 -12.462)" fill="#fff"/>
  </g>
</svg>
