<svg xmlns="http://www.w3.org/2000/svg" width="77.221" height="48.233" viewBox="0 0 77.221 48.233">
  <g id="Group_1441" data-name="Group 1441" transform="translate(16792.238 9740.725)">
    <path id="Path_40" data-name="Path 40" d="M197.831,307.733H132.39a5.9,5.9,0,0,1-5.89-5.889V265.389a5.9,5.9,0,0,1,5.89-5.889h65.442a5.9,5.9,0,0,1,5.889,5.889v36.454A5.9,5.9,0,0,1,197.831,307.733Zm-65.442-46.04a3.7,3.7,0,0,0-3.7,3.7v36.454a3.7,3.7,0,0,0,3.7,3.7h65.442a3.7,3.7,0,0,0,3.7-3.7V265.389a3.7,3.7,0,0,0-3.7-3.7Z" transform="translate(-16918.738 -10000.225)" fill="#189ec9"/>
    <g id="Group_1440" data-name="Group 1440">
      <path id="Path_41" data-name="Path 41" d="M329.264,409.462H306.731a.731.731,0,1,1,0-1.461h22.533a.731.731,0,1,1,0,1.461Z" transform="translate(-17051.182 -10126.07)" fill="#141e3c"/>
      <path id="Path_42" data-name="Path 42" d="M320.494,426.462H306.731a.731.731,0,0,1,0-1.462h13.763a.731.731,0,0,1,0,1.462Z" transform="translate(-17051.182 -10138.339)" fill="#141e3c"/>
      <path id="Path_3458" data-name="Path 3458" d="M937.336,103.518a12.187,12.187,0,1,1,12.143-12.094A12.2,12.2,0,0,1,937.336,103.518Zm7.273-12.2a7.316,7.316,0,1,0-7.358,7.333A7.345,7.345,0,0,0,944.609,91.316Z" transform="translate(-17708.172 -9807.94)" fill="#141e3c"/>
    </g>
  </g>
</svg>
