<svg xmlns="http://www.w3.org/2000/svg" width="294.228" height="7.176" viewBox="0 0 294.228 7.176">
  <g id="Group_1680" data-name="Group 1680" transform="translate(-812.886 -657.506)">
    <ellipse id="Ellipse_67" data-name="Ellipse 67" cx="3.588" cy="3.588" rx="3.588" ry="3.588" transform="translate(1081.997 657.506)" fill="#e6e6e6"/>
    <ellipse id="Ellipse_68" data-name="Ellipse 68" cx="3.588" cy="3.588" rx="3.588" ry="3.588" transform="translate(1028.175 657.506)" fill="#e6e6e6"/>
    <ellipse id="Ellipse_69" data-name="Ellipse 69" cx="3.588" cy="3.588" rx="3.588" ry="3.588" transform="translate(974.353 657.506)" fill="#e6e6e6"/>
    <ellipse id="Ellipse_70" data-name="Ellipse 70" cx="3.588" cy="3.588" rx="3.588" ry="3.588" transform="translate(920.531 657.506)" fill="#e6e6e6"/>
    <ellipse id="Ellipse_71" data-name="Ellipse 71" cx="3.588" cy="3.588" rx="3.588" ry="3.588" transform="translate(866.708 657.506)" fill="#e6e6e6"/>
    <ellipse id="Ellipse_72" data-name="Ellipse 72" cx="3.588" cy="3.588" rx="3.588" ry="3.588" transform="translate(812.886 657.506)" fill="#e6e6e6"/>
    <ellipse id="Ellipse_56" data-name="Ellipse 56" cx="3.588" cy="3.588" rx="3.588" ry="3.588" transform="translate(1099.938 657.506)" fill="#e6e6e6"/>
    <ellipse id="Ellipse_57" data-name="Ellipse 57" cx="3.588" cy="3.588" rx="3.588" ry="3.588" transform="translate(1046.116 657.506)" fill="#e6e6e6"/>
    <ellipse id="Ellipse_58" data-name="Ellipse 58" cx="3.588" cy="3.588" rx="3.588" ry="3.588" transform="translate(992.293 657.506)" fill="#e6e6e6"/>
    <ellipse id="Ellipse_59" data-name="Ellipse 59" cx="3.588" cy="3.588" rx="3.588" ry="3.588" transform="translate(938.471 657.506)" fill="#e6e6e6"/>
    <ellipse id="Ellipse_60" data-name="Ellipse 60" cx="3.588" cy="3.588" rx="3.588" ry="3.588" transform="translate(884.649 657.506)" fill="#e6e6e6"/>
    <ellipse id="Ellipse_61" data-name="Ellipse 61" cx="3.588" cy="3.588" rx="3.588" ry="3.588" transform="translate(830.827 657.506)" fill="#e6e6e6"/>
    <ellipse id="Ellipse_62" data-name="Ellipse 62" cx="3.588" cy="3.588" rx="3.588" ry="3.588" transform="translate(1064.057 657.506)" fill="#e6e6e6"/>
    <ellipse id="Ellipse_63" data-name="Ellipse 63" cx="3.588" cy="3.588" rx="3.588" ry="3.588" transform="translate(1010.234 657.506)" fill="#e6e6e6"/>
    <ellipse id="Ellipse_64" data-name="Ellipse 64" cx="3.588" cy="3.588" rx="3.588" ry="3.588" transform="translate(956.412 657.506)" fill="#e6e6e6"/>
    <ellipse id="Ellipse_65" data-name="Ellipse 65" cx="3.588" cy="3.588" rx="3.588" ry="3.588" transform="translate(902.59 657.506)" fill="#e6e6e6"/>
    <ellipse id="Ellipse_66" data-name="Ellipse 66" cx="3.588" cy="3.588" rx="3.588" ry="3.588" transform="translate(848.768 657.506)" fill="#e6e6e6"/>
  </g>
</svg>
