<svg xmlns="http://www.w3.org/2000/svg" width="26" height="28.516" viewBox="0 0 26 28.516">
  <g id="Group_1179" data-name="Group 1179" transform="translate(-794.062 305.358)">
    <path id="Path_24" data-name="Path 24" d="M797.976-302.831v-2.526h2.56v2.481h10.405v-2.482h2.581v2.527c.4,0,.716,0,1.031,0a2.67,2.67,0,0,1,2.906,2.936c0,2.333-.016,4.665.018,7a1.821,1.821,0,0,0,.385,1.029,8.886,8.886,0,0,1,1.563,9.146,8.632,8.632,0,0,1-7.107,5.758,8.827,8.827,0,0,1-7.34-2.111,1.55,1.55,0,0,0-.909-.342c-2.355-.028-4.711-.013-7.067-.016a2.679,2.679,0,0,1-2.941-2.97q0-8.661,0-17.321c0-2.094,1-3.1,3.082-3.106Zm4.706,20.78c-1.428-3.829-1.051-7.337,1.855-10.265,2.927-2.948,6.458-3.32,10.266-1.922v-2.053h-18.08v14.24h5.958Zm14.6-3.879A6.374,6.374,0,0,0,811-292.262a6.382,6.382,0,0,0-6.368,6.318,6.382,6.382,0,0,0,6.352,6.334A6.375,6.375,0,0,0,817.283-285.93Z" fill="#189ec9"/>
    <path id="Path_25" data-name="Path 25" d="M886.9-212.9h1.9c0,.99.031,1.974-.013,2.955a.966.966,0,0,0,.6,1.023c.854.449,1.677.957,2.574,1.476L891-205.779c-1.322-.761-2.6-1.488-3.866-2.239a.6.6,0,0,1-.225-.438C886.892-209.91,886.9-211.364,886.9-212.9Z" transform="translate(-77.201 -76.889)" fill="#141e3c"/>
  </g>
</svg>
