<svg xmlns="http://www.w3.org/2000/svg" width="24.303" height="16.919" viewBox="0 0 24.303 16.919">
  <g id="Group_1426" data-name="Group 1426" transform="translate(0)">
    <path id="Path_960" data-name="Path 960" d="M6964.187,1311.822c1.4,0,2.788,0,4.172,0,.158,0,.163-.1.2-.2a3.044,3.044,0,0,1,2.354-2.041,3.1,3.1,0,0,1,3.573,2.033.255.255,0,0,0,.3.208c.328-.013.656,0,1,0,0-.092.01-.161.01-.231,0-1.119,0-2.238,0-3.356a.6.6,0,0,0-.111-.328c-.262-.359-.545-.7-.81-1.058a.352.352,0,0,0-.323-.153q-2.764.006-5.529,0a.876.876,0,0,1-.983-.977q0-2.41,0-4.819v-.276h-.3q-5.68,0-11.359-.007a1.354,1.354,0,0,1-.627-.167.811.811,0,0,1-.346-.9.849.849,0,0,1,.7-.642,2.065,2.065,0,0,1,.3-.019h12.349a.9.9,0,0,1,1.013,1.02v.505h.24c.933,0,1.865.006,2.8,0a.918.918,0,0,1,.908.555c.684,1.372,1.354,2.75,2.075,4.1a11.617,11.617,0,0,0,1.022,1.454c.855,1.138.706.685.715,2.1.009,1.319,0,2.639,0,3.959a.86.86,0,0,1-.961.97c-.61,0-1.219,0-1.829,0a.214.214,0,0,0-.248.165,3.137,3.137,0,0,1-5.919,0,.2.2,0,0,0-.227-.163q-2,.008-4,0a.2.2,0,0,0-.226.166,3.137,3.137,0,0,1-5.913.017.227.227,0,0,0-.257-.184c-.538.01-1.077-.016-1.613.01a.883.883,0,0,1-.949-.863.87.87,0,0,1,.961-.869c.523,0,1.046-.005,1.57,0a.241.241,0,0,0,.276-.188,3.033,3.033,0,0,1,2.724-2.1,3.1,3.1,0,0,1,3.178,2.012C6964.12,1311.634,6964.15,1311.722,6964.187,1311.822Zm9.584-6.865c-.467-.928-.914-1.824-1.373-2.713a.292.292,0,0,0-.223-.1c-.695-.008-1.39,0-2.085,0h-.315v2.818Zm-12.635,9.112a1.407,1.407,0,1,0-1.4-1.414A1.414,1.414,0,0,0,6961.137,1314.068Zm10.379,0a1.407,1.407,0,1,0-1.406-1.408A1.417,1.417,0,0,0,6971.516,1314.068Z" transform="translate(-6953.22 -1298.887)" fill="#141e3c"/>
    <path id="Path_961" data-name="Path 961" d="M6951.679,1325.572h3.138a.866.866,0,1,1,.01,1.725q-3.192,0-6.384,0a.866.866,0,0,1-.839-.615.838.838,0,0,1,.366-.97,1.1,1.1,0,0,1,.506-.134C6949.544,1325.566,6950.611,1325.572,6951.679,1325.572Z" transform="translate(-6946.326 -1322.451)" fill="#141e3c"/>
    <path id="Path_962" data-name="Path 962" d="M6941.048,1352.773h-3.223a.82.82,0,0,1-.772-.453.828.828,0,0,1,.035-.877.817.817,0,0,1,.72-.4q3.245-.007,6.49,0a.846.846,0,0,1,.852.868.835.835,0,0,1-.856.856C6943.212,1352.778,6942.13,1352.773,6941.048,1352.773Z" transform="translate(-6936.944 -1344.945)" fill="#141e3c"/>
    <path id="Path_963" data-name="Path 963" d="M6950.2,1376.66c.552,0,1.1,0,1.655,0a.869.869,0,0,1,.94.87.887.887,0,0,1-.956.86c-1.132,0-2.265,0-3.4,0a.86.86,0,0,1-.866-.768.849.849,0,0,1,.586-.916,1.241,1.241,0,0,1,.359-.043C6949.081,1376.658,6949.64,1376.66,6950.2,1376.66Z" transform="translate(-6946.326 -1367.568)" fill="#141e3c"/>
  </g>
</svg>
