<svg xmlns="http://www.w3.org/2000/svg" width="16.865" height="18.025" viewBox="0 0 16.865 18.025">
  <g id="Group_429" data-name="Group 429" transform="translate(-37.977 874.209)">
    <path id="Path_782" data-name="Path 782" d="M41.545-872.373v-1.086c0-.455.247-.738.639-.747s.667.28.672.749c0,.356,0,.713,0,1.086h7.118v-1.072c.005-.475.256-.767.658-.767s.652.29.655.767v1.086H53.54a1.214,1.214,0,0,1,1.289,1.134,1.219,1.219,0,0,1,0,.157c.006.771,0,1.541,0,2.312V-857.6a1.236,1.236,0,0,1-1.042,1.4,1.238,1.238,0,0,1-.355,0H39.4a1.24,1.24,0,0,1-1.411-1.04,1.237,1.237,0,0,1,0-.382v-13.3a1.252,1.252,0,0,1,1.042-1.432,1.251,1.251,0,0,1,.394,0h1.964C41.432-872.356,41.462-872.363,41.545-872.373Zm-2.534,4.853v9.644c0,.55.117.667.666.667H53.17c.533,0,.654-.119.654-.645v-9.666Zm3.848-3.763c0,.239.008.447,0,.649a.66.66,0,0,1-.64.679h-.04a.658.658,0,0,1-.63-.685v-.009c-.005-.2,0-.406,0-.656a.986.986,0,0,0-.126,1.389q.027.033.057.063a1.018,1.018,0,0,0,1.44,0l.03-.031a.97.97,0,0,0-.051-1.371l-.04-.035Zm7.119,0a.948.948,0,0,0-.273,1.115,1,1,0,0,0,1.009.616,1.008,1.008,0,0,0,.9-.761.82.82,0,0,0-.328-.941v.575a.66.66,0,0,1-.592.72.655.655,0,0,1-.071,0,.665.665,0,0,1-.649-.681c0-.01,0-.02,0-.031-.007-.194,0-.388,0-.618Z" transform="translate(0 0)" fill="#fff"/>
    <path id="Path_783" data-name="Path 783" d="M126.409-756.8h-.664a.307.307,0,0,1-.336-.276.3.3,0,0,1,0-.06c-.005-.422,0-.844,0-1.265a.309.309,0,0,1,.278-.337.308.308,0,0,1,.059,0c.422-.007.843,0,1.265,0a.312.312,0,0,1,.339.282.318.318,0,0,1,0,.054c.008.421.01.844,0,1.265a.319.319,0,0,1-.3.341.313.313,0,0,1-.075,0C126.793-756.8,126.6-756.8,126.409-756.8Z" transform="translate(-81.459 -107.582)" fill="#fff"/>
    <path id="Path_784" data-name="Path 784" d="M171.146-757.762v.6a.315.315,0,0,1-.269.355.316.316,0,0,1-.079,0h-1.233a.32.32,0,0,1-.358-.276.321.321,0,0,1,0-.073q-.012-.616,0-1.233a.323.323,0,0,1,.285-.357.324.324,0,0,1,.067,0c.411,0,.822,0,1.233,0a.326.326,0,0,1,.361.288.326.326,0,0,1,0,.1c0,.2,0,.4,0,.6Z" transform="translate(-122.261 -107.578)" fill="#fff"/>
    <path id="Path_785" data-name="Path 785" d="M215.188-757.71v.632a.291.291,0,0,1-.261.319.3.3,0,0,1-.056,0q-.647.009-1.3,0a.292.292,0,0,1-.315-.267.3.3,0,0,1,0-.052q-.006-.647,0-1.3c0-.224.139-.32.347-.32.4,0,.8,0,1.2,0a.332.332,0,0,1,.381.274.332.332,0,0,1,0,.116C215.183-758.109,215.188-757.91,215.188-757.71Z" transform="translate(-163.312 -107.624)" fill="#fff"/>
    <path id="Path_786" data-name="Path 786" d="M83.576-757.692c0,1.016.084.946-.93.942h-.663a.3.3,0,0,1-.335-.263.3.3,0,0,1,0-.068v-1.263c0-.238.134-.342.359-.343h1.169c.275,0,.411.121.4.4C83.571-758.092,83.576-757.892,83.576-757.692Z" transform="translate(-40.686 -107.632)" fill="#fff"/>
    <path id="Path_787" data-name="Path 787" d="M170.174-669.16c-.192,0-.38,0-.569,0-.268.006-.383-.134-.383-.388v-1.138c0-.267.113-.413.4-.407.39.008.779.005,1.169,0,.266,0,.383.128.38.389,0,.379-.007.758,0,1.137.005.277-.114.413-.4.406-.2,0-.4,0-.6,0Z" transform="translate(-122.283 -189.245)" fill="#fff"/>
    <path id="Path_788" data-name="Path 788" d="M126.345-712.956h-.569c-.256.005-.395-.111-.394-.377v-1.2a.312.312,0,0,1,.264-.354.311.311,0,0,1,.082,0h1.232a.32.32,0,0,1,.36.272.319.319,0,0,1,0,.071q.011.616,0,1.232a.328.328,0,0,1-.29.362.325.325,0,0,1-.093,0C126.746-712.96,126.545-712.956,126.345-712.956Z" transform="translate(-81.434 -148.437)" fill="#fff"/>
    <path id="Path_789" data-name="Path 789" d="M126.356-671.049c.192,0,.38,0,.569,0,.268-.008.383.128.387.383v1.169a.338.338,0,0,1-.288.382.34.34,0,0,1-.105,0c-.39-.006-.78,0-1.169,0a.333.333,0,0,1-.383-.273.331.331,0,0,1,0-.11c.005-.39,0-.78,0-1.169,0-.265.128-.383.389-.378C125.956-671.045,126.156-671.049,126.356-671.049Z" transform="translate(-81.417 -189.287)" fill="#fff"/>
    <path id="Path_790" data-name="Path 790" d="M170.163-712.93h-.6a.319.319,0,0,1-.367-.263.317.317,0,0,1,0-.073c-.01-.421-.008-.842,0-1.263a.308.308,0,0,1,.281-.333.314.314,0,0,1,.059,0H170.8c.236,0,.339.135.338.364v1.2a.325.325,0,0,1-.276.368.331.331,0,0,1-.094,0Z" transform="translate(-122.249 -148.464)" fill="#fff"/>
    <path id="Path_791" data-name="Path 791" d="M81.564-713.9c0-1.061-.1-.969.962-.969s.969-.1.968.964.094.969-.964.97c-.2,0-.4,0-.6,0a.319.319,0,0,1-.367-.264.319.319,0,0,1,0-.1Q81.564-713.6,81.564-713.9Z" transform="translate(-40.606 -148.457)" fill="#fff"/>
    <path id="Path_792" data-name="Path 792" d="M213.245-713.963c0-.21,0-.421,0-.631a.291.291,0,0,1,.26-.319.291.291,0,0,1,.059,0q.647-.008,1.294,0c.219,0,.32.133.32.348v1.231c0,.256-.138.355-.38.352-.389,0-.778-.006-1.167,0-.268,0-.383-.128-.383-.383v-.6Z" transform="translate(-163.298 -148.414)" fill="#fff"/>
    <path id="Path_793" data-name="Path 793" d="M83.512-670.1v.6a.31.31,0,0,1-.268.347.311.311,0,0,1-.086,0H81.928a.308.308,0,0,1-.346-.264.31.31,0,0,1,0-.089v-1.231a.308.308,0,0,1,.265-.346.309.309,0,0,1,.088,0h1.231a.308.308,0,0,1,.347.264.308.308,0,0,1,0,.089C83.513-670.521,83.512-670.311,83.512-670.1Z" transform="translate(-40.624 -189.25)" fill="#fff"/>
  </g>
</svg>
