<svg xmlns="http://www.w3.org/2000/svg" width="56.018" height="61.438" viewBox="0 0 56.018 61.438">
  <g id="Group_8" data-name="Group 8" transform="translate(-794.062 305.358)">
    <path id="Path_24" data-name="Path 24" d="M802.495-299.913v-5.442h5.516v5.345h22.418v-5.348h5.561v5.445c.865,0,1.543,0,2.222,0,3.965.015,6.256,2.324,6.261,6.325.006,5.026-.033,10.052.039,15.076a3.926,3.926,0,0,0,.831,2.217c4.752,5.964,6.036,12.576,3.368,19.705-2.635,7.044-7.939,11.218-15.312,12.405a19.016,19.016,0,0,1-15.813-4.547,3.342,3.342,0,0,0-1.958-.737c-5.074-.06-10.15-.029-15.225-.034-4.06,0-6.336-2.3-6.337-6.4q0-18.66,0-37.319c0-4.512,2.157-6.684,6.64-6.691Zm10.138,44.771c-3.076-8.249-2.266-15.808,4-22.115,6.306-6.351,13.914-7.152,22.119-4.142v-4.423H799.8v30.679h12.838Zm31.46-8.357a13.733,13.733,0,0,0-13.54-13.644,13.75,13.75,0,0,0-13.721,13.613,13.75,13.75,0,0,0,13.685,13.647A13.735,13.735,0,0,0,844.092-263.5Z" transform="translate(0)" fill="#fff"/>
    <path id="Path_25" data-name="Path 25" d="M886.9-212.9h4.09c0,2.132.067,4.253-.027,6.367a2.082,2.082,0,0,0,1.3,2.2c1.839.967,3.612,2.062,5.545,3.181l-2.07,3.585c-2.848-1.639-5.6-3.206-8.328-4.823a1.281,1.281,0,0,1-.486-.944C886.885-206.46,886.9-209.593,886.9-212.9Z" transform="translate(-59.151 -58.913)" fill="#fff"/>
  </g>
</svg>
