<svg xmlns="http://www.w3.org/2000/svg" width="18.366" height="18.374" viewBox="0 0 18.366 18.374">
  <g id="Group_1004" data-name="Group 1004" transform="translate(2472.103 608.303)">
    <path id="Path_1208" data-name="Path 1208" d="M-2472.1-599.678c.047-.345.08-.693.142-1.036a8.989,8.989,0,0,1,3.294-5.561,8.993,8.993,0,0,1,6.12-2.023,9.2,9.2,0,0,1,8.6,7.227,9.183,9.183,0,0,1-6.339,10.752,9.2,9.2,0,0,1-10.573-4.176,9.125,9.125,0,0,1-1.218-3.886,1.646,1.646,0,0,0-.031-.174Zm9.183-7.214a7.772,7.772,0,0,0-7.77,7.762,7.777,7.777,0,0,0,7.766,7.787,7.781,7.781,0,0,0,7.781-7.773A7.776,7.776,0,0,0-2462.92-606.892Z" transform="translate(0)" fill="#fff"/>
    <path id="Path_1209" data-name="Path 1209" d="M-2303.289-533.543h.23q1.983,0,3.967,0a.7.7,0,0,1,.741.642.7.7,0,0,1-.742.767q-2.428,0-4.855,0h-.036a.7.7,0,0,1-.718-.725q0-2.455,0-4.91a.7.7,0,0,1,.7-.723.7.7,0,0,1,.712.731c0,1.329,0,2.657,0,3.986Z" transform="translate(-158.921 -66.277)" fill="#fff"/>
  </g>
</svg>
