<svg xmlns="http://www.w3.org/2000/svg" width="71.293" height="55.751" viewBox="0 0 71.293 55.751">
  <g id="Group_9" data-name="Group 9" transform="translate(-281.251 -31.524)">
    <path id="Path_26" data-name="Path 26" d="M324.711,48.153A16.357,16.357,0,0,1,339.238,31.6a16,16,0,0,1,17.333,13.054,15.674,15.674,0,0,1-2.655,12.726c-2.193,3-4.892,5.624-7.114,8.6-1.822,2.441-3.258,5.166-4.9,7.742-.261.408-.7.945-1.083.964a1.578,1.578,0,0,1-1.123-.879c-1.851-4.33-4.859-7.821-7.92-11.312a55.586,55.586,0,0,1-5.234-6.931A13.1,13.1,0,0,1,324.711,48.153Zm24.681-.541a8.638,8.638,0,0,0-8.691-8.651,8.641,8.641,0,1,0,.261,17.278A8.559,8.559,0,0,0,349.392,47.612Z" transform="translate(-23.863 0)" fill="#fff"/>
    <path id="Path_27" data-name="Path 27" d="M307.27,104.669c-3.53,0-6.728.049-9.923-.023a2.518,2.518,0,0,0-2.669,1.647c-2.034,4.332-4.165,8.619-6.256,12.925-.156.322-.287.658-.494,1.137h57.985c-.149-.365-.266-.7-.42-1.018-2.13-4.378-4.294-8.741-6.379-13.14a2.352,2.352,0,0,0-2.472-1.547c-3.231.069-6.466.023-10.092.023,1.412-1.554,2.581-2.883,3.81-4.153a1.593,1.593,0,0,1,1.033-.258c2.831-.021,5.662.014,8.493-.029a1.77,1.77,0,0,1,1.82,1.136c3.463,7.142,6.957,14.269,10.425,21.409.818,1.684.457,2.22-1.426,2.22q-33.726.007-67.451.008c-.246,0-.494.01-.738-.009-1.2-.092-1.542-.6-1.045-1.683.8-1.746,1.662-3.467,2.5-5.2,2.67-5.481,5.362-10.951,8-16.448a2.148,2.148,0,0,1,2.263-1.437c2.664.078,5.333.006,8,.04a2.109,2.109,0,0,1,1.355.381C304.8,101.861,305.908,103.163,307.27,104.669Z" transform="translate(0 -37.732)" fill="#fff"/>
  </g>
</svg>
