<svg xmlns="http://www.w3.org/2000/svg" width="11.185" height="14.98" viewBox="0 0 11.185 14.98">
  <path id="Path_3449" data-name="Path 3449" d="M324.706,37.295a5.677,5.677,0,0,1,5.042-5.745,5.555,5.555,0,0,1,6.015,4.53,5.44,5.44,0,0,1-.921,4.417c-.761,1.04-1.7,1.952-2.469,2.985-.632.847-1.131,1.793-1.7,2.687-.09.142-.243.328-.376.335a.548.548,0,0,1-.39-.305,15.078,15.078,0,0,0-2.749-3.926,19.3,19.3,0,0,1-1.816-2.406A4.549,4.549,0,0,1,324.706,37.295Zm8.566-.188a3,3,0,0,0-3.016-3,3,3,0,1,0,.091,6A2.97,2.97,0,0,0,333.271,37.107Z" transform="translate(-324.703 -31.524)" fill="#fff"/>
</svg>
